<?xml version="1.0" encoding="UTF-8"?>
<svg version="1.1" xmlns="http://www.w3.org/2000/svg" width="228" height="135">
<path d="M0 0 C29.7 0 59.4 0 90 0 C90.020625 12.354375 90.04125 24.70875 90.0625 37.4375 C90.071604 41.34392334 90.08070801 45.25034668 90.09008789 49.27514648 C90.09460449 54.03137207 90.09460449 54.03137207 90.09544373 56.25526428 C90.09698316 57.8143899 90.10050807 59.3735143 90.10557556 60.93263245 C90.11285399 63.28901246 90.11390739 65.64531948 90.11352539 68.00170898 C90.1171235 68.70073806 90.12072161 69.39976713 90.12442875 70.1199789 C90.11402634 74.88597366 90.11402634 74.88597366 89 76 C86.26649252 76.10048523 83.55822108 76.13616261 80.82421875 76.12939453 C79.53893784 76.13202301 79.53893784 76.13202301 78.22769165 76.13470459 C75.3809408 76.13912417 72.53425153 76.13618475 69.6875 76.1328125 C67.71834298 76.13348551 65.74918603 76.13445551 63.7800293 76.13571167 C59.64729015 76.13718879 55.51457258 76.13503364 51.38183594 76.13037109 C46.07175479 76.1246738 40.76172419 76.12795273 35.4516449 76.13394356 C31.38374447 76.1375488 27.31585611 76.13641076 23.24795532 76.13381577 C21.28943882 76.13314639 19.33092124 76.13397527 17.37240601 76.13629532 C14.640168 76.13882124 11.90801303 76.13498211 9.17578125 76.12939453 C7.94923325 76.13243088 7.94923325 76.13243088 6.69790649 76.13552856 C1.11426246 76.11426246 1.11426246 76.11426246 0 75 C-0.09492895 72.65741937 -0.12558483 70.34457881 -0.11352539 68.00170898 C-0.11364593 67.25817452 -0.11376646 66.51464006 -0.11389065 65.74857426 C-0.11314159 63.33105079 -0.10551371 60.9136035 -0.09765625 58.49609375 C-0.09618681 57.00785357 -0.09516611 55.51961287 -0.09460449 54.03137207 C-0.08935187 48.50007352 -0.07539078 42.96878602 -0.0625 37.4375 C-0.041875 25.083125 -0.02125 12.72875 0 0 Z M8 7 C8 27.46 8 47.92 8 69 C14.93 69 21.86 69 29 69 C28.01 68.01 27.02 67.02 26 66 C25.34 66 24.68 66 24 66 C23.7525 65.484375 23.505 64.96875 23.25 64.4375 C21.95188997 61.81463341 21.95188997 61.81463341 19.9375 58.75 C17.67352131 54.870096 17.3121645 51.44834412 17 47 C21.29 47.33 25.58 47.66 30 48 C30.391875 49.0725 30.78375 50.145 31.1875 51.25 C32.74862329 54.90495216 34.62901161 56.80885755 38 59 C41.08298051 60.02766017 43.33130426 60.16598738 46.5625 60.1875 C48.01849609 60.20876953 48.01849609 60.20876953 49.50390625 60.23046875 C52.17398916 60.25207746 52.17398916 60.25207746 54 58 C51.36 57.67 48.72 57.34 46 57 C46 54.03 46 51.06 46 48 C53.92 47.505 53.92 47.505 62 47 C59.4451701 42.66532837 59.4451701 42.66532837 55.34765625 42.27734375 C53.9208014 42.14618439 52.49215134 42.0334927 51.0625 41.9375 C43.82635009 41.40993192 43.82635009 41.40993192 40.51171875 39.765625 C38.46033599 37.36969475 38.58847535 35.92184951 38.75 32.8125 C38.78609375 31.91144531 38.8221875 31.01039062 38.859375 30.08203125 C38.92898437 29.05142578 38.92898437 29.05142578 39 28 C39.99 27.67 40.98 27.34 42 27 C42.350625 27.45375 42.70125 27.9075 43.0625 28.375 C48.0822351 32.5851004 55.08423269 32.36564391 61.328125 32.75390625 C64 33 64 33 67 34 C67.16682272 38.92127034 67.24828052 42.50343896 65 47 C68.3 47.33 71.6 47.66 75 48 C73.32261715 57.22560568 70.3057268 62.18862641 63 68 C63 68.33 63 68.66 63 69 C69.27 69 75.54 69 82 69 C82 48.54 82 28.08 82 7 C57.58 7 33.16 7 8 7 Z " fill="#F33618" transform="translate(64,2)"/>
<path d="M0 0 C29.7 0 59.4 0 90 0 C90.020625 12.354375 90.04125 24.70875 90.0625 37.4375 C90.071604 41.34392334 90.08070801 45.25034668 90.09008789 49.27514648 C90.09460449 54.03137207 90.09460449 54.03137207 90.09544373 56.25526428 C90.09698316 57.8143899 90.10050807 59.3735143 90.10557556 60.93263245 C90.11285399 63.28901246 90.11390739 65.64531948 90.11352539 68.00170898 C90.1171235 68.70073806 90.12072161 69.39976713 90.12442875 70.1199789 C90.11402634 74.88597366 90.11402634 74.88597366 89 76 C86.26649252 76.10048523 83.55822108 76.13616261 80.82421875 76.12939453 C79.53893784 76.13202301 79.53893784 76.13202301 78.22769165 76.13470459 C75.3809408 76.13912417 72.53425153 76.13618475 69.6875 76.1328125 C67.71834298 76.13348551 65.74918603 76.13445551 63.7800293 76.13571167 C59.64729015 76.13718879 55.51457258 76.13503364 51.38183594 76.13037109 C46.07175479 76.1246738 40.76172419 76.12795273 35.4516449 76.13394356 C31.38374447 76.1375488 27.31585611 76.13641076 23.24795532 76.13381577 C21.28943882 76.13314639 19.33092124 76.13397527 17.37240601 76.13629532 C14.640168 76.13882124 11.90801303 76.13498211 9.17578125 76.12939453 C7.94923325 76.13243088 7.94923325 76.13243088 6.69790649 76.13552856 C1.11426246 76.11426246 1.11426246 76.11426246 0 75 C-0.09492895 72.65741937 -0.12558483 70.34457881 -0.11352539 68.00170898 C-0.11364593 67.25817452 -0.11376646 66.51464006 -0.11389065 65.74857426 C-0.11314159 63.33105079 -0.10551371 60.9136035 -0.09765625 58.49609375 C-0.09618681 57.00785357 -0.09516611 55.51961287 -0.09460449 54.03137207 C-0.08935187 48.50007352 -0.07539078 42.96878602 -0.0625 37.4375 C-0.041875 25.083125 -0.02125 12.72875 0 0 Z M6 5 C5.979375 15.704375 5.95875 26.40875 5.9375 37.4375 C5.928396 40.82185303 5.91929199 44.20620605 5.90991211 47.69311523 C5.90699326 50.35660767 5.90444463 53.02010055 5.90234375 55.68359375 C5.89973038 56.38009537 5.897117 57.07659698 5.89442444 57.79420471 C5.88714392 59.83601779 5.88666161 61.87785168 5.88647461 63.91967773 C5.884254 65.07217514 5.88203339 66.22467255 5.87974548 67.41209412 C5.70562405 69.93013147 5.70562405 69.93013147 7 71 C8.92478813 71.15806531 10.8549921 71.251135 12.78515625 71.31640625 C13.95498047 71.35830078 15.12480469 71.40019531 16.33007812 71.44335938 C17.56177734 71.48267578 18.79347656 71.52199219 20.0625 71.5625 C21.29806641 71.60568359 22.53363281 71.64886719 23.80664062 71.69335938 C26.87097335 71.79984198 29.93539073 71.90185424 33 72 C33 72.33 33 72.66 33 73 C41.58 73 50.16 73 59 73 C59 72.67 59 72.34 59 72 C59.72179443 71.97494385 60.44358887 71.9498877 61.18725586 71.92407227 C64.437535 71.80848698 67.68749688 71.68559226 70.9375 71.5625 C72.07380859 71.52318359 73.21011719 71.48386719 74.38085938 71.44335938 C75.46044922 71.40146484 76.54003906 71.35957031 77.65234375 71.31640625 C78.65257568 71.27974854 79.65280762 71.24309082 80.68334961 71.20532227 C82.96069188 71.25328159 82.96069188 71.25328159 84 70 C84.09409479 67.97505769 84.11743122 65.9468013 84.11352539 63.91967773 C84.11334412 61.94034241 84.11334412 61.94034241 84.11315918 59.92102051 C84.10812269 58.50854445 84.10295606 57.09606885 84.09765625 55.68359375 C84.09664917 54.40681763 84.09564209 53.1300415 84.09460449 51.8145752 C84.08935266 47.02220773 84.07539156 42.22985301 84.0625 37.4375 C84.0315625 21.3809375 84.0315625 21.3809375 84 5 C58.26 5 32.52 5 6 5 Z " fill="#E82204" transform="translate(64,2)"/>
<path d="M0 0 C0.99 -0.33 1.98 -0.66 3 -1 C5.51821973 -0.91208918 7.99204519 -0.77030197 10.5 -0.5625 C15.74341171 -0.14606694 15.74341171 -0.14606694 21 0 C22.66666667 0 24.33333333 0 26 0 C26.495 0.99 26.495 0.99 27 2 C27.33 1.34 27.66 0.68 28 0 C31.63 0 35.26 0 39 0 C39 4.62 39 9.24 39 14 C35.26452904 14.74709419 32.51843574 15.11295903 28.8125 15.0625 C27.95269531 15.05347656 27.09289062 15.04445313 26.20703125 15.03515625 C25.11455078 15.01775391 25.11455078 15.01775391 24 15 C23.34 15 22.68 15 22 15 C17.66666667 15 13.33333333 15 9 15 C7.71682108 11.15046324 7.93356363 8.05261865 8 4 C7.67 7.63 7.34 11.26 7 15 C4.525 14.505 4.525 14.505 2 14 C1.67 10.7 1.34 7.4 1 4 C0.01 4.66 -0.98 5.32 -2 6 C-1.484375 6.391875 -0.96875 6.78375 -0.4375 7.1875 C1 9 1 9 0.75 11.625 C0 14 0 14 -1 15 C-2.81116207 15.07267906 -4.6250044 15.08371256 -6.4375 15.0625 C-7.42621094 15.05347656 -8.41492187 15.04445313 -9.43359375 15.03515625 C-10.28050781 15.02355469 -11.12742188 15.01195313 -12 15 C-12.66 15 -13.32 15 -14 15 C-24 15 -34 15 -44 15 C-44 10.05 -44 5.1 -44 0 C-42.72125 -0.061875 -41.4425 -0.12375 -40.125 -0.1875 C-39.04605469 -0.23970703 -39.04605469 -0.23970703 -37.9453125 -0.29296875 C-37.30335937 -0.19628906 -36.66140625 -0.09960938 -36 0 C-35.34 0.99 -34.68 1.98 -34 3 C-33.34 2.01 -32.68 1.02 -32 0 C-29.375 -0.1875 -29.375 -0.1875 -27 0 C-25.72746564 3.64793184 -24.67170806 7.1936543 -24 11 C-23.34 11 -22.68 11 -22 11 C-22 7.37 -22 3.74 -22 0 C-20.68 0 -19.36 0 -18 0 C-17.67 0.66 -17.34 1.32 -17 2 C-16.67 1.34 -16.34 0.68 -16 0 C-13.33333333 0 -10.66666667 0 -8 0 C-4.65367153 -1.11544282 -3.36086161 -0.67217232 0 0 Z M-40 3 C-39 6 -39 6 -39 6 Z M-35 5 C-35 6.98 -35 8.96 -35 11 C-34.67 11 -34.34 11 -34 11 C-34 9.02 -34 7.04 -34 5 C-34.33 5 -34.66 5 -35 5 Z M-9 6 C-8.67 7.32 -8.34 8.64 -8 10 C-7.34 9.34 -6.68 8.68 -6 8 C-6.99 7.34 -7.98 6.68 -9 6 Z " fill="#F4C6AA" transform="translate(54,91)"/>
<path d="M0 0 C4.62 0 9.24 0 14 0 C14 0.99 14 1.98 14 3 C14.99257812 2.51402344 15.98515625 2.02804687 17.0078125 1.52734375 C20.93285552 -0.147065 24.63637634 -0.50131163 28.875 -0.4375 C29.92772095 -0.42722778 29.92772095 -0.42722778 31.00170898 -0.41674805 C36.81989374 -0.23713707 41.11705833 0.90813734 46 4 C46.6909375 4.40863281 47.381875 4.81726563 48.09375 5.23828125 C50.0625 6.5 50.0625 6.5 53 9 C53 13 53 13 51.35546875 14.703125 C50.28232422 15.46882813 50.28232422 15.46882813 49.1875 16.25 C48.47980469 16.77078125 47.77210938 17.2915625 47.04296875 17.828125 C45 19 45 19 42 19 C42 18.34 42 17.68 42 17 C35.26335525 13.37257591 29.50399836 12.07839264 22 14 C18.94310542 15.75909829 16.60338296 17.79323408 15 21 C14.73634236 24.22614424 14.5556966 27.44547376 14.39453125 30.67773438 C14.10079169 35.89920831 14.10079169 35.89920831 13 37 C11.00200428 37.09873816 9.00042842 37.12971799 7 37.125 C5.906875 37.12757812 4.81375 37.13015625 3.6875 37.1328125 C1 37 1 37 0 36 C-0.08855161 33.3337397 -0.11524673 30.69352886 -0.09765625 28.02734375 C-0.0962413 27.22970108 -0.09482635 26.43205841 -0.09336853 25.61024475 C-0.08775316 23.05262565 -0.07519812 20.49509282 -0.0625 17.9375 C-0.05748698 16.20768355 -0.05292373 14.47786574 -0.04882812 12.74804688 C-0.03777875 8.49866447 -0.02050386 4.24934688 0 0 Z " fill="#054304" transform="translate(81,10)"/>
<path d="M0 0 C73.92 0 147.84 0 224 0 C224 0.99 224 1.98 224 3 C178.46 3.495 178.46 3.495 132 4 C132.99 4.99 132.99 4.99 134 6 C134 6.99 134 7.98 134 9 C135.05960938 8.98839844 136.11921875 8.97679688 137.2109375 8.96484375 C138.59895658 8.95546524 139.98697755 8.94636511 141.375 8.9375 C142.07367188 8.92912109 142.77234375 8.92074219 143.4921875 8.91210938 C148.7734375 8.88671875 148.7734375 8.88671875 151 10 C151 10.99 151 11.98 151 13 C150.34 13 149.68 13 149 13 C149 16.3 149 19.6 149 23 C147.68 23 146.36 23 145 23 C145 21.68 145 20.36 145 19 C144.67 20.32 144.34 21.64 144 23 C140.92468444 22.66753345 139.38167494 22.36895244 137.125 20.1875 C136 18 136 18 136.3125 15.75 C136.6528125 14.88375 136.6528125 14.88375 137 14 C136.01 13.505 136.01 13.505 135 13 C135 16.3 135 19.6 135 23 C133.68 22.67 132.36 22.34 131 22 C131 19.36 131 16.72 131 14 C130.01 13.505 130.01 13.505 129 13 C129 14.98 129 16.96 129 19 C127.125 19.625 127.125 19.625 125 20 C124.01 19.01 124.01 19.01 123 18 C123 17.01 123 16.02 123 15 C123.66 15 124.32 15 125 15 C125 14.34 125 13.68 125 13 C124.01 13 123.02 13 122 13 C122.70068466 9.21630285 123.83405552 7.60990747 126 4 C84.42 3.67 42.84 3.34 0 3 C0 2.01 0 1.02 0 0 Z M142 13 C142.33 13.99 142.66 14.98 143 16 C143.66 16 144.32 16 145 16 C145 15.01 145 14.02 145 13 C144.01 13 143.02 13 142 13 Z " fill="#B5B5B5" transform="translate(2,110)"/>
<path d="M0 0 C2.25 -0.25 2.25 -0.25 5 0 C5.58007812 0.65097656 6.16015625 1.30195312 6.7578125 1.97265625 C9.7334375 4.66316039 11.66725705 4.55795762 15.625 4.6875 C21.86585366 4.93292683 21.86585366 4.93292683 24 6 C24 6.99 24 7.98 24 9 C23.34 9.66 22.68 10.32 22 11 C22.185625 11.804375 22.37125 12.60875 22.5625 13.4375 C23 16 23 16 21.875 17.8125 C19.37186206 19.39782069 17.91343893 19.43701584 15 19 C13.1875 17.5 13.1875 17.5 12 16 C11.01 16.66 10.02 17.32 9 18 C2.91503268 18.54330065 2.91503268 18.54330065 0 16.8125 C-1 15 -1 15 -0.6875 12.3125 C-0.460625 11.549375 -0.23375 10.78625 0 10 C-0.66 9.67 -1.32 9.34 -2 9 C-2 12.3 -2 15.6 -2 19 C-2.99 19 -3.98 19 -5 19 C-5 17.35 -5 15.7 -5 14 C-5.5775 14.350625 -6.155 14.70125 -6.75 15.0625 C-9.35801776 16.14917407 -10.39417629 15.93065133 -13 15 C-13.66 16.32 -14.32 17.64 -15 19 C-17.97 19 -20.94 19 -24 19 C-24.33 17.35 -24.66 15.7 -25 14 C-25.33 15.65 -25.66 17.3 -26 19 C-30.75 18.25 -30.75 18.25 -33 16 C-33.66 16.99 -34.32 17.98 -35 19 C-35.99 19 -36.98 19 -38 19 C-38 15.7 -38 12.4 -38 9 C-38.66 9 -39.32 9 -40 9 C-39.25 3.25 -39.25 3.25 -37 1 C-31.41372743 0.54210881 -28.70248005 0.82264862 -24 4 C-21.30745009 4.70670728 -21.30745009 4.70670728 -19 5 C-19 4.01 -19 3.02 -19 2 C-15.81713789 0.40856894 -12.46517847 0.59940133 -9 1 C-6.25 2.5 -6.25 2.5 -4 4 C-2.68 4 -1.36 4 0 4 C0 2.68 0 1.36 0 0 Z M-13 3 C-13.33 3.66 -13.66 4.32 -14 5 C-13.01 4.67 -12.02 4.34 -11 4 C-11.66 3.67 -12.32 3.34 -13 3 Z M-35 9 C-34.67 10.32 -34.34 11.64 -34 13 C-33.34 11.68 -32.68 10.36 -32 9 C-32.99 9 -33.98 9 -35 9 Z M-15 9 C-14.01 10.485 -14.01 10.485 -13 12 C-12.67 11.01 -12.34 10.02 -12 9 C-12.99 9 -13.98 9 -15 9 Z M-9 9 C-8.67 9.99 -8.34 10.98 -8 12 C-7.01 11.67 -6.02 11.34 -5 11 C-5 10.34 -5 9.68 -5 9 C-6.32 9 -7.64 9 -9 9 Z M9 9 C9 9.99 9 10.98 9 12 C7.02 12.33 5.04 12.66 3 13 C3.33 13.66 3.66 14.32 4 15 C7.465 14.505 7.465 14.505 11 14 C11.66 12.35 12.32 10.7 13 9 C11.68 9 10.36 9 9 9 Z M-30 12 C-29 14 -29 14 -29 14 Z M14 14 C14.66 14.66 15.32 15.32 16 16 C18.10820797 15.6814823 18.10820797 15.6814823 20 15 C20 14.67 20 14.34 20 14 C18.02 14 16.04 14 14 14 Z " fill="#6C8E69" transform="translate(196,114)"/>
<path d="M0 0 C8.83155316 -0.02314123 17.66309594 -0.0409242 26.49467278 -0.05181217 C30.59525496 -0.05703709 34.69581645 -0.06412768 38.79638672 -0.07543945 C42.75154957 -0.08628218 46.70669248 -0.09227979 50.66186905 -0.09487724 C52.17298827 -0.09672898 53.68410637 -0.10034482 55.19521713 -0.10573006 C57.30708958 -0.11295886 59.41887895 -0.11399016 61.53076172 -0.11352539 C62.73433319 -0.115746 63.93790466 -0.11796661 65.177948 -0.12025452 C68 0 68 0 70 1 C70 1.99 70 2.98 70 4 C69.34 4 68.68 4 68 4 C68 7.3 68 10.6 68 14 C66.68 14 65.36 14 64 14 C64 12.02 64 10.04 64 8 C63.34 8 62.68 8 62 8 C61.67 8.99 61.34 9.98 61 11 C59.0625 10.3125 59.0625 10.3125 57 9 C56.25 6.375 56.25 6.375 56 4 C56 7.3 56 10.6 56 14 C53.03 14 50.06 14 47 14 C46.505 13.01 46.505 13.01 46 12 C43.67843403 11.59270772 41.3431213 11.25561323 39 11 C39.495 12.485 39.495 12.485 40 14 C36.71006898 14.36554789 35.36900115 14.26218503 32.625 12.3125 C31 10 31 10 31.25 7.25 C31.4975 6.5075 31.745 5.765 32 5 C31.34 4.67 30.68 4.34 30 4 C30 7.3 30 10.6 30 14 C28.68 14 27.36 14 26 14 C25.67 13.34 25.34 12.68 25 12 C24.46375 12.268125 23.9275 12.53625 23.375 12.8125 C21 13 21 13 17.75 10.75 C16.8425 9.8425 15.935 8.935 15 8 C15 7.01 15 6.02 15 5 C18 5 18 5 20.1875 7 C21.0846875 7.99 21.0846875 7.99 22 9 C22 8.34 22 7.68 22 7 C21.01 6.67 20.02 6.34 19 6 C19 5.67 19 5.34 19 5 C16.525 4.505 16.525 4.505 14 4 C14 7.3 14 10.6 14 14 C10.04248927 14.310393 7.66944984 14.38679324 4.1875 12.375 C0.62523362 8.5073965 0 5.17764503 0 0 Z M37 3 C37 4.32 37 5.64 37 7 C37.99 6.67 38.98 6.34 40 6 C39.01 5.01 38.02 4.02 37 3 Z M42 3 C43 5 43 5 43 5 Z M46 3 C45.67 3.99 45.34 4.98 45 6 C44.34 6.66 43.68 7.32 43 8 C44.65 7.67 46.3 7.34 48 7 C47.67 5.68 47.34 4.36 47 3 C46.67 3 46.34 3 46 3 Z M8 4 C8 5.32 8 6.64 8 8 C7.01 8.495 7.01 8.495 6 9 C7.98 9.99 7.98 9.99 10 11 C10.33 8.69 10.66 6.38 11 4 C10.01 4 9.02 4 8 4 Z " fill="#9FBC9C" transform="translate(8,119)"/>
<path d="M0 0 C1.65 0 3.3 0 5 0 C5 3.63 5 7.26 5 11 C5.99 11 6.98 11 8 11 C8 7.37 8 3.74 8 0 C12 0 16 0 20 0 C21.79492697 -0.0085479 23.58985394 -0.01709659 25.38478088 -0.02565002 C28.46395085 -0.03887774 31.54312647 -0.04713149 34.62231445 -0.05493164 C36.2509017 -0.05998279 37.87948436 -0.06682267 39.50805664 -0.07543945 C41.85043452 -0.08751235 44.19275304 -0.09322827 46.53515625 -0.09765625 C47.26742935 -0.10281754 47.99970245 -0.10797882 48.75416565 -0.11329651 C50.50318486 -0.11349246 52.25207842 -0.06195469 54 0 C55.80746134 1.80746134 55.17303483 4.50445781 55.1875 6.9375 C55.20167969 8.01902344 55.21585938 9.10054687 55.23046875 10.21484375 C55 13 55 13 53 15 C50.46069158 15.14560255 48.0343703 15.18658283 45.5 15.125 C44.81035156 15.11597656 44.12070313 15.10695313 43.41015625 15.09765625 C41.60664496 15.07304693 39.80329503 15.03722398 38 15 C37.34 15 36.68 15 36 15 C34.33333333 15 32.66666667 15 31 15 C30.67 12.03 30.34 9.06 30 6 C29.67 8.97 29.34 11.94 29 15 C25.03069011 15.02465881 21.06140966 15.04284023 17.09204102 15.05493164 C15.74079614 15.05997057 14.38955674 15.06680177 13.03833008 15.07543945 C11.09979566 15.08752419 9.161222 15.09269828 7.22265625 15.09765625 C5.47094116 15.10551147 5.47094116 15.10551147 3.68383789 15.11352539 C1 15 1 15 0 14 C-0.07271741 11.64686445 -0.08370868 9.29166332 -0.0625 6.9375 C-0.05347656 5.64714844 -0.04445312 4.35679688 -0.03515625 3.02734375 C-0.02355469 2.02832031 -0.01195312 1.02929688 0 0 Z M42 3 C42 3.99 42 4.98 42 6 C42.99 6 43.98 6 45 6 C44.2575 6.680625 44.2575 6.680625 43.5 7.375 C41.77390663 8.87635519 41.77390663 8.87635519 42 11 C43.32 11 44.64 11 46 11 C46 8.36 46 5.72 46 3 C44.68 3 43.36 3 42 3 Z M50 3 C50 5.64 50 8.28 50 11 C50.33 11 50.66 11 51 11 C51 8.36 51 5.72 51 3 C50.67 3 50.34 3 50 3 Z " fill="#E89A7E" transform="translate(166,91)"/>
<path d="M0 0 C29.7 0 59.4 0 90 0 C90.020625 12.354375 90.04125 24.70875 90.0625 37.4375 C90.071604 41.34392334 90.08070801 45.25034668 90.09008789 49.27514648 C90.09460449 54.03137207 90.09460449 54.03137207 90.09544373 56.25526428 C90.09698316 57.8143899 90.10050807 59.3735143 90.10557556 60.93263245 C90.11285399 63.28901246 90.11390739 65.64531948 90.11352539 68.00170898 C90.1171235 68.70073806 90.12072161 69.39976713 90.12442875 70.1199789 C90.11402634 74.88597366 90.11402634 74.88597366 89 76 C86.26649252 76.10048523 83.55822108 76.13616261 80.82421875 76.12939453 C79.53893784 76.13202301 79.53893784 76.13202301 78.22769165 76.13470459 C75.3809408 76.13912417 72.53425153 76.13618475 69.6875 76.1328125 C67.71834298 76.13348551 65.74918603 76.13445551 63.7800293 76.13571167 C59.64729015 76.13718879 55.51457258 76.13503364 51.38183594 76.13037109 C46.07175479 76.1246738 40.76172419 76.12795273 35.4516449 76.13394356 C31.38374447 76.1375488 27.31585611 76.13641076 23.24795532 76.13381577 C21.28943882 76.13314639 19.33092124 76.13397527 17.37240601 76.13629532 C14.640168 76.13882124 11.90801303 76.13498211 9.17578125 76.12939453 C7.94923325 76.13243088 7.94923325 76.13243088 6.69790649 76.13552856 C1.11426246 76.11426246 1.11426246 76.11426246 0 75 C-0.09492895 72.65741937 -0.12558483 70.34457881 -0.11352539 68.00170898 C-0.11364593 67.25817452 -0.11376646 66.51464006 -0.11389065 65.74857426 C-0.11314159 63.33105079 -0.10551371 60.9136035 -0.09765625 58.49609375 C-0.09618681 57.00785357 -0.09516611 55.51961287 -0.09460449 54.03137207 C-0.08935187 48.50007352 -0.07539078 42.96878602 -0.0625 37.4375 C-0.041875 25.083125 -0.02125 12.72875 0 0 Z M2 1 C2 25.09 2 49.18 2 74 C30.38 74 58.76 74 88 74 C88 49.91 88 25.82 88 1 C59.62 1 31.24 1 2 1 Z " fill="#EBA285" transform="translate(64,2)"/>
<path d="M0 0 C-0.495 0.8353125 -0.495 0.8353125 -1 1.6875 C-2.16594721 4.38375292 -2.29134297 6.08657033 -2 9 C-1.08431094 11.25132517 -1.08431094 11.25132517 0 13 C-1 14 -1 14 -4.9375 14.0625 C-6.29171764 14.04529578 -7.64590241 14.02492204 -9 14 C-9.66 14 -10.32 14 -11 14 C-14 14 -17 14 -20 14 C-20 13.34 -20 12.68 -20 12 C-20.66 12 -21.32 12 -22 12 C-22 12.66 -22 13.32 -22 14 C-28.15234375 14.09765625 -28.15234375 14.09765625 -30 14 C-31 13 -31 13 -31.09765625 10.71484375 C-31.08605469 9.79832031 -31.07445313 8.88179687 -31.0625 7.9375 C-31.05347656 7.01839844 -31.04445313 6.09929687 -31.03515625 5.15234375 C-31.02355469 4.44207031 -31.01195313 3.73179688 -31 3 C-32.98 3.99 -32.98 3.99 -35 5 C-34.484375 5.391875 -33.96875 5.78375 -33.4375 6.1875 C-32 8 -32 8 -32.25 10.625 C-33 13 -33 13 -34 14 C-36.9375 14.1875 -36.9375 14.1875 -40 14 C-40.66 13.34 -41.32 12.68 -42 12 C-42 10.68 -42 9.36 -42 8 C-41.34 7.67 -40.68 7.34 -40 7 C-40.66 6.34 -41.32 5.68 -42 5 C-42.125 2.375 -42.125 2.375 -42 0 C-38.93672847 -1.53163577 -35.69159357 -1.28205787 -32.32421875 -1.38671875 C-31.18095879 -1.42500542 -31.18095879 -1.42500542 -30.01460266 -1.46406555 C-28.39987048 -1.51610575 -26.78505218 -1.56552889 -25.17016602 -1.61254883 C-22.70733201 -1.68690128 -20.24545228 -1.77765395 -17.78320312 -1.86914062 C-16.21357267 -1.9176797 -14.64391149 -1.96523742 -13.07421875 -2.01171875 C-12.34071701 -2.04077805 -11.60721527 -2.06983734 -10.85148621 -2.09977722 C-6.75233679 -2.19987401 -3.68250325 -1.84418033 0 0 Z M-18 2 C-17.67 4.64 -17.34 7.28 -17 10 C-16.67 10 -16.34 10 -16 10 C-16 7.36 -16 4.72 -16 2 C-16.66 2 -17.32 2 -18 2 Z M-26 3 C-25 6 -25 6 -25 6 Z " fill="#F0B59B" transform="translate(136,92)"/>
<path d="M0 0 C0.99 0.33 1.98 0.66 3 1 C3 1.66 3 2.32 3 3 C9.17604809 4.54401202 14.93243465 5.27779551 21.30078125 5.4609375 C24.69373353 6.13854591 25.90024653 7.29539951 28 10 C28.54480978 14.35847821 28.01343372 15.97313257 26 20 C28.97 20.33 31.94 20.66 35 21 C36.07833476 25.31333904 35.8667658 26.20024244 34.25 30.125 C33.90453125 30.99382813 33.5590625 31.86265625 33.203125 32.7578125 C32 35 32 35 29 37 C29.92638213 34.61787452 30.83235994 32.30569658 32.0625 30.0625 C33.35743457 27.44953375 33.35743457 27.44953375 34 22 C25.09 22 16.18 22 7 22 C7 24.64 7 27.28 7 30 C10.63 30 14.26 30 18 30 C17 33 17 33 14.5625 34.6875 C9.17577619 36.67208246 4.07600773 37.24164431 -1.3515625 35.05078125 C-4.73610179 33.10005588 -6.64122621 31.67270085 -8.5 28.1875 C-8.665 27.465625 -8.83 26.74375 -9 26 C-8.52949219 26.42152344 -8.05898437 26.84304687 -7.57421875 27.27734375 C-6.64029297 28.09912109 -6.64029297 28.09912109 -5.6875 28.9375 C-4.76517578 29.75541016 -4.76517578 29.75541016 -3.82421875 30.58984375 C-0.44929397 33.19872564 2.58138541 33.11080723 6.6875 33.0625 C7.68136719 33.05347656 8.67523438 33.04445312 9.69921875 33.03515625 C10.83810547 33.01775391 10.83810547 33.01775391 12 33 C9.69 32.34 7.38 31.68 5 31 C4.97310784 29.52093108 4.95365379 28.04172517 4.9375 26.5625 C4.92589844 25.73878906 4.91429688 24.91507813 4.90234375 24.06640625 C5 22 5 22 6 21 C8.52596259 20.76346477 11.03107207 20.57826308 13.5625 20.4375 C14.62887695 20.37272461 14.62887695 20.37272461 15.71679688 20.30664062 C17.47761912 20.20028223 19.2387832 20.09961154 21 20 C17.82464148 16.82464148 13.35184608 17.28561211 9.02929688 16.96484375 C4.21297562 16.49256803 1.26670199 15.64655106 -2 12 C-2.55859375 9.4921875 -2.55859375 9.4921875 -2.4375 6.875 C-2.41558594 6.00617187 -2.39367187 5.13734375 -2.37109375 4.2421875 C-2 2 -2 2 0 0 Z " fill="#F5D3AA" transform="translate(104,28)"/>
<path d="M0 0 C25.74 0 51.48 0 78 0 C78 21.45 78 42.9 78 65 C69.75 65 61.5 65 53 65 C53.99 64.01 54.98 63.02 56 62 C56.99 62.495 56.99 62.495 58 63 C63.94 63.33 69.88 63.66 76 64 C76 43.54 76 23.08 76 2 C51.58 2 27.16 2 2 2 C2 22.46 2 42.92 2 64 C8.6 63.67 15.2 63.34 22 63 C22.99 63 23.98 63 25 63 C25.66 63.66 26.32 64.32 27 65 C18.09 65 9.18 65 0 65 C0 43.55 0 22.1 0 0 Z " fill="#F2B59A" transform="translate(70,7)"/>
<path d="M0 0 C20.63375414 -0.04010881 20.63375414 -0.04010881 29.40625 -0.04882812 C35.40007407 -0.05481376 41.39388291 -0.06190665 47.38769531 -0.07543945 C52.21817822 -0.08627786 57.04864482 -0.09227887 61.87913895 -0.09487724 C63.72518801 -0.09672976 65.57123615 -0.10034709 67.41727829 -0.10573006 C69.99614161 -0.11295312 72.57493685 -0.1139904 75.15380859 -0.11352539 C76.30718971 -0.1189183 76.30718971 -0.1189183 77.48387146 -0.12442017 C82.77189568 -0.11405216 82.77189568 -0.11405216 85 1 C84.67 2.32 84.34 3.64 84 5 C84 4.01 84 3.02 84 2 C44.895 2.495 44.895 2.495 5 3 C5 24.45 5 45.9 5 68 C18.365 68.495 18.365 68.495 32 69 C31.67 69.66 31.34 70.32 31 71 C21.1 71 11.2 71 1 71 C0.67 47.57 0.34 24.14 0 0 Z " fill="#FB1B00" transform="translate(66,4)"/>
<path d="M0 0 C5.23274388 -0.02467917 10.46545403 -0.04285003 15.69824219 -0.05493164 C17.47917267 -0.05996711 19.260099 -0.06679581 21.04101562 -0.07543945 C23.59766665 -0.08753942 26.15426312 -0.09323609 28.7109375 -0.09765625 C29.50994476 -0.10281754 30.30895203 -0.10797882 31.13217163 -0.11329651 C36.77225659 -0.11387171 36.77225659 -0.11387171 39 1 C39 1.99 39 2.98 39 4 C38.34 4 37.68 4 37 4 C37 7.3 37 10.6 37 14 C35.68 14 34.36 14 33 14 C32.34 13.34 31.68 12.68 31 12 C29.68252676 11.30251417 28.35085807 10.63040043 27 10 C26.443125 10.515625 25.88625 11.03125 25.3125 11.5625 C23 13 23 13 20.4375 12.9375 C17.54498606 11.82499464 16.59751134 10.60646588 15 8 C14.67 9.98 14.34 11.96 14 14 C6.81218274 14.60913706 6.81218274 14.60913706 3 11.75 C1 9 1 9 1 5 C0.34 4.67 -0.32 4.34 -1 4 C-0.67 2.68 -0.34 1.36 0 0 Z M8 4 C7.34 5.65 6.68 7.3 6 9 C7.98 9.99 7.98 9.99 10 11 C10 8.69 10 6.38 10 4 C9.34 4 8.68 4 8 4 Z M14 4 C14.639375 4.12375 15.27875 4.2475 15.9375 4.375 C16.9584375 4.684375 16.9584375 4.684375 18 5 C18.33 5.66 18.66 6.32 19 7 C19.33 6.01 19.66 5.02 20 4 C18.02 4 16.04 4 14 4 Z M32 4 C31.67 4.99 31.34 5.98 31 7 C30.01 7.495 30.01 7.495 29 8 C30.32 8 31.64 8 33 8 C32.67 6.68 32.34 5.36 32 4 Z M19 7 C19.33 7.66 19.66 8.32 20 9 C20.66 8.67 21.32 8.34 22 8 C21.01 7.67 20.02 7.34 19 7 Z " fill="#71926F" transform="translate(82,119)"/>
<path d="M0 0 C0.9075 0.391875 1.815 0.78375 2.75 1.1875 C2.375 3.125 2.375 3.125 1.75 5.1875 C0.76 5.6825 0.76 5.6825 -0.25 6.1875 C0.265625 6.579375 0.78125 6.97125 1.3125 7.375 C2.75 9.1875 2.75 9.1875 2.5 11.8125 C1.75 14.1875 1.75 14.1875 0.75 15.1875 C-3.20114545 15.46808489 -7.16507723 15.41931436 -11.125 15.4375 C-12.24003906 15.458125 -13.35507813 15.47875 -14.50390625 15.5 C-15.57253906 15.50515625 -16.64117187 15.5103125 -17.7421875 15.515625 C-19.21727783 15.52964355 -19.21727783 15.52964355 -20.72216797 15.54394531 C-23.25 15.1875 -23.25 15.1875 -25.06933594 13.80175781 C-26.62402334 11.67611821 -26.65114209 10.30170892 -26.625 7.6875 C-26.63273438 6.9140625 -26.64046875 6.140625 -26.6484375 5.34375 C-26.15619206 2.67983348 -25.40755011 1.78924095 -23.25 0.1875 C-20.1875 -0.125 -20.1875 -0.125 -17.25 0.1875 C-16.59 0.8475 -15.93 1.5075 -15.25 2.1875 C-14.92 1.5275 -14.59 0.8675 -14.25 0.1875 C-12.27 0.1875 -10.29 0.1875 -8.25 0.1875 C-7.92 0.8475 -7.59 1.5075 -7.25 2.1875 C-6.71375 1.65125 -6.1775 1.115 -5.625 0.5625 C-3.25 -0.8125 -3.25 -0.8125 0 0 Z M-21.25 3.1875 C-21.25 4.1775 -21.25 5.1675 -21.25 6.1875 C-20.59 5.8575 -19.93 5.5275 -19.25 5.1875 C-19.91 4.5275 -20.57 3.8675 -21.25 3.1875 Z M-7.25 6.1875 C-7.25 7.1775 -7.25 8.1675 -7.25 9.1875 C-6.59 9.1875 -5.93 9.1875 -5.25 9.1875 C-5.58 8.1975 -5.91 7.2075 -6.25 6.1875 C-6.58 6.1875 -6.91 6.1875 -7.25 6.1875 Z M-21.25 9.1875 C-20.25 11.1875 -20.25 11.1875 -20.25 11.1875 Z " fill="#F2C4AB" transform="translate(162.25,90.8125)"/>
<path d="M0 0 C0.33 0.66 0.66 1.32 1 2 C1.33 1.34 1.66 0.68 2 0 C5.63 0 9.26 0 13 0 C13 4.62 13 9.24 13 14 C9.26452904 14.74709419 6.51843574 15.11295903 2.8125 15.0625 C1.95269531 15.05347656 1.09289062 15.04445313 0.20703125 15.03515625 C-0.88544922 15.01775391 -0.88544922 15.01775391 -2 15 C-2.66 15 -3.32 15 -4 15 C-8.33333333 15 -12.66666667 15 -17 15 C-18.17353189 11.47940432 -18.20146402 8.693507 -18 5 C-17.34 4.34 -16.68 3.68 -16 3 C-16 6.63 -16 10.26 -16 14 C-15.34 14 -14.68 14 -14 14 C-14 12.02 -14 10.04 -14 8 C-13.01 8 -12.02 8 -11 8 C-11 9.98 -11 11.96 -11 14 C-10.01 14 -9.02 14 -8 14 C-8 9.71 -8 5.42 -8 1 C-5.07175348 0.02391783 -3.04386724 -0.08226668 0 0 Z " fill="#F5C9B1" transform="translate(80,91)"/>
<path d="M0 0 C8.91 0 17.82 0 27 0 C27 5.48505778 26.90985375 6.91677056 24.5 11.375 C23.80390625 12.68597656 23.80390625 12.68597656 23.09375 14.0234375 C22.7328125 14.67570312 22.371875 15.32796875 22 16 C19.6589788 15.45326469 17.65191716 14.84718314 15.4375 13.875 C12.91342919 12.68543553 12.91342919 12.68543553 10 14 C7.8125 13.0625 7.8125 13.0625 6 12 C6.639375 11.71125 7.27875 11.4225 7.9375 11.125 C10.15206079 10.17176549 10.15206079 10.17176549 11 8 C7.37 8 3.74 8 0 8 C0 5.36 0 2.72 0 0 Z " fill="#F32709" transform="translate(111,50)"/>
<path d="M0 0 C30.69 0 61.38 0 93 0 C93 0.99 93 1.98 93 3 C62.31 3 31.62 3 0 3 C0 2.01 0 1.02 0 0 Z " fill="#B5B5B5" transform="translate(133,110)"/>
<path d="M0 0 C1.67293936 0.30027117 3.33985384 0.63557767 5 1 C5.99 0.67 6.98 0.34 8 0 C10.5808926 0.08744008 13.11691478 0.22868495 15.6875 0.4375 C16.7403418 0.51581055 16.7403418 0.51581055 17.81445312 0.59570312 C19.54338054 0.72507865 21.27175355 0.86182531 23 1 C23 5.62 23 10.24 23 15 C22.01 15 21.02 15 20 15 C20 13.02 20 11.04 20 9 C19.01 9 18.02 9 17 9 C17 10.98 17 12.96 17 15 C16.34 15 15.68 15 15 15 C15 11.37 15 7.74 15 4 C14.01 4.495 14.01 4.495 13 5 C12.5316735 7.58605332 12.5316735 7.58605332 12.375 10.5625 C12.30023438 11.57441406 12.22546875 12.58632812 12.1484375 13.62890625 C12.09945312 14.41136719 12.05046875 15.19382812 12 16 C10.35 15.67 8.7 15.34 7 15 C6.67 11.7 6.34 8.4 6 5 C5.01 5.66 4.02 6.32 3 7 C3.33 9.31 3.66 11.62 4 14 C-0.75 15.125 -0.75 15.125 -3 14 C-3 13.01 -3 12.02 -3 11 C-0.525 11.99 -0.525 11.99 2 13 C0.24545615 9.81765895 0.24545615 9.81765895 -2 7 C-2.1875 4.5625 -2.1875 4.5625 -2 2 C-1.34 1.34 -0.68 0.68 0 0 Z " fill="#EFBEA1" transform="translate(49,90)"/>
<path d="M0 0 C0.66 0 1.32 0 2 0 C2 0.66 2 1.32 2 2 C7.91710218 4.11325078 13.63271071 4.38766999 19.890625 4.65625 C23 5 23 5 26 7 C26.5177665 12.43654822 26.5177665 12.43654822 26 15 C24.4765625 16.75390625 24.4765625 16.75390625 23 18 C22.57332031 17.65066406 22.14664063 17.30132812 21.70703125 16.94140625 C16.1909866 12.92663561 11.60930341 12.41511493 4.85546875 12.3359375 C2 12 2 12 0.12890625 10.69921875 C-1.72543624 7.9080804 -1.23585497 5.24300583 -1 2 C-0.67 1.34 -0.34 0.68 0 0 Z " fill="#F66E07" transform="translate(104,30)"/>
<path d="M0 0 C-0.66 1.65 -1.32 3.3 -2 5 C-4 4 -4 4 -6 2 C-6.26932521 6.65052872 -6.26932521 6.65052872 -5 11 C-7.46800047 9.84826645 -9.04783565 8.95216435 -11 7 C-11 5.68 -11 4.36 -11 3 C-11.66 2.67 -12.32 2.34 -13 2 C-13 5.3 -13 8.6 -13 12 C-14.32 12 -15.64 12 -17 12 C-17.33 11.34 -17.66 10.68 -18 10 C-18.53625 10.268125 -19.0725 10.53625 -19.625 10.8125 C-22 11 -22 11 -25.25 8.75 C-26.1575 7.8425 -27.065 6.935 -28 6 C-28 5.01 -28 4.02 -28 3 C-25 3 -25 3 -22.8125 5 C-21.9153125 5.99 -21.9153125 5.99 -21 7 C-21 6.34 -21 5.68 -21 5 C-21.99 4.67 -22.98 4.34 -24 4 C-24.99 3.34 -25.98 2.68 -27 2 C-27.99 1.67 -28.98 1.34 -30 1 C-30 4.3 -30 7.6 -30 11 C-30.33 11 -30.66 11 -31 11 C-31 7.7 -31 4.4 -31 1 C-32.65 1 -34.3 1 -36 1 C-36.33 1.66 -36.66 2.32 -37 3 C-37.33 2.01 -37.66 1.02 -38 0 C-32.90985861 -0.16744386 -27.81956506 -0.32802081 -22.72900391 -0.48217773 C-20.99652241 -0.5356173 -19.2640982 -0.59094818 -17.53173828 -0.64819336 C-15.04472202 -0.73004993 -12.5575805 -0.80514988 -10.0703125 -0.87890625 C-9.29317902 -0.90594131 -8.51604553 -0.93297638 -7.71536255 -0.96083069 C-2.22774341 -1.11387171 -2.22774341 -1.11387171 0 0 Z " fill="#436940" transform="translate(51,121)"/>
<path d="M0 0 C2.01822917 0.06510417 4.03645833 0.13020833 6.0546875 0.1953125 C6.0546875 0.5253125 6.0546875 0.8553125 6.0546875 1.1953125 C4.3840625 1.3190625 4.3840625 1.3190625 2.6796875 1.4453125 C-1.00285194 1.77405037 -1.00285194 1.77405037 -2.3828125 4.2578125 C-2.5684375 4.8971875 -2.7540625 5.5365625 -2.9453125 6.1953125 C-1.2953125 6.5253125 0.3546875 6.8553125 2.0546875 7.1953125 C1.0646875 7.6903125 1.0646875 7.6903125 0.0546875 8.1953125 C0.3846875 8.8553125 0.7146875 9.5153125 1.0546875 10.1953125 C1.7146875 9.2053125 2.3746875 8.2153125 3.0546875 7.1953125 C6.09335549 6.78394048 8.97628453 7.06338094 12.0546875 7.1953125 C12.0546875 10.4953125 12.0546875 13.7953125 12.0546875 17.1953125 C12.7146875 17.1953125 13.3746875 17.1953125 14.0546875 17.1953125 C14.0546875 13.8953125 14.0546875 10.5953125 14.0546875 7.1953125 C17.3546875 7.1953125 20.6546875 7.1953125 24.0546875 7.1953125 C23.73285058 10.5424165 23.33535506 13.51118532 22.0546875 16.6328125 C18.773402 19.1963168 15.06460458 18.49794775 11.0546875 18.1953125 C10.7246875 16.5453125 10.3946875 14.8953125 10.0546875 13.1953125 C9.7246875 14.8453125 9.3946875 16.4953125 9.0546875 18.1953125 C4.3046875 17.4453125 4.3046875 17.4453125 2.0546875 15.1953125 C1.0646875 16.6803125 1.0646875 16.6803125 0.0546875 18.1953125 C-0.9353125 18.1953125 -1.9253125 18.1953125 -2.9453125 18.1953125 C-2.9453125 14.8953125 -2.9453125 11.5953125 -2.9453125 8.1953125 C-3.6053125 8.1953125 -4.2653125 8.1953125 -4.9453125 8.1953125 C-3.92779658 0.39435709 -3.92779658 0.39435709 0 0 Z M20.0546875 8.1953125 C21.0446875 9.6803125 21.0446875 9.6803125 22.0546875 11.1953125 C22.3846875 10.2053125 22.7146875 9.2153125 23.0546875 8.1953125 C22.0646875 8.1953125 21.0746875 8.1953125 20.0546875 8.1953125 Z M5.0546875 11.1953125 C6.0546875 13.1953125 6.0546875 13.1953125 6.0546875 13.1953125 Z " fill="#93AF91" transform="translate(160.9453125,114.8046875)"/>
<path d="M0 0 C1.32 0 2.64 0 4 0 C4.33 0.66 4.66 1.32 5 2 C5.33 1.34 5.66 0.68 6 0 C9.5219721 -0.08004482 12.61981469 -0.04005702 16 1 C15.9071875 2.1446875 15.9071875 2.1446875 15.8125 3.3125 C16.03533919 6.50652837 16.73319924 6.9220993 19 9 C19 9.99 19 10.98 19 12 C17.35 11.34 15.7 10.68 14 10 C14 10.99 14 11.98 14 13 C15.98 13 17.96 13 20 13 C20 11.02 20 9.04 20 7 C20.99 7.66 21.98 8.32 23 9 C22.125 13.875 22.125 13.875 21 15 C19.18883793 15.07267906 17.3749956 15.08371256 15.5625 15.0625 C14.57378906 15.05347656 13.58507812 15.04445313 12.56640625 15.03515625 C11.71949219 15.02355469 10.87257813 15.01195313 10 15 C9.34 15 8.68 15 8 15 C5.03 14.505 5.03 14.505 2 14 C2.33 9.71 2.66 5.42 3 1 C2.34 1 1.68 1 1 1 C1 4.63 1 8.26 1 12 C0.01 11.67 -0.98 11.34 -2 11 C-1.34 11 -0.68 11 0 11 C0 7.37 0 3.74 0 0 Z M13 6 C13.33 7.32 13.66 8.64 14 10 C14.66 9.34 15.32 8.68 16 8 C15.01 7.34 14.02 6.68 13 6 Z " fill="#F4C6AD" transform="translate(32,91)"/>
<path d="M0 0 C2.31 0.33 4.62 0.66 7 1 C7 1.66 7 2.32 7 3 C7.90363281 2.97679688 8.80726563 2.95359375 9.73828125 2.9296875 C10.91777344 2.91164063 12.09726563 2.89359375 13.3125 2.875 C15.07013672 2.84019531 15.07013672 2.84019531 16.86328125 2.8046875 C20 3 20 3 23 5 C22.67 8.3 22.34 11.6 22 15 C21.34 15 20.68 15 20 15 C20 13.68 20 12.36 20 11 C19.01 10.67 18.02 10.34 17 10 C17.66 9.67 18.32 9.34 19 9 C19.65213292 6.97536745 19.65213292 6.97536745 20 5 C18.35 5 16.7 5 15 5 C15 6.65 15 8.3 15 10 C14.34 10 13.68 10 13 10 C12.67 10.66 12.34 11.32 12 12 C11.34 11.67 10.68 11.34 10 11 C10.33 9.68 10.66 8.36 11 7 C10.34 6.67 9.68 6.34 9 6 C9 9.3 9 12.6 9 16 C7.68 15.67 6.36 15.34 5 15 C5 12.36 5 9.72 5 7 C4.34 6.67 3.68 6.34 3 6 C3 7.98 3 9.96 3 12 C1.125 12.625 1.125 12.625 -1 13 C-1.66 12.34 -2.32 11.68 -3 11 C-3 10.01 -3 9.02 -3 8 C-2.34 8 -1.68 8 -1 8 C-1 7.34 -1 6.68 -1 6 C-1.66 6 -2.32 6 -3 6 C-3 5.34 -3 4.68 -3 4 C-0.03 4 2.94 4 6 4 C6 3.34 6 2.68 6 2 C4.02 2 2.04 2 0 2 C0 1.34 0 0.68 0 0 Z " fill="#789A76" transform="translate(128,117)"/>
<path d="M0 0 C2.47923801 -0.02685095 4.9581884 -0.04676547 7.4375 -0.0625 C8.14455078 -0.07087891 8.85160156 -0.07925781 9.58007812 -0.08789062 C11.38693559 -0.09653588 13.19387603 -0.05220011 15 0 C16.74104353 1.74104353 16.21311272 4.07364021 16.25 6.4375 C16.27578125 7.42621094 16.3015625 8.41492188 16.328125 9.43359375 C16.21984375 10.28050781 16.1115625 11.12742187 16 12 C11.0754853 15.2830098 5.82305673 14.11530805 0 14 C0 9.38 0 4.76 0 0 Z M3 3 C3 3.99 3 4.98 3 6 C3.99 6 4.98 6 6 6 C5.2575 6.680625 5.2575 6.680625 4.5 7.375 C2.77390663 8.87635519 2.77390663 8.87635519 3 11 C4.32 11 5.64 11 7 11 C7 8.36 7 5.72 7 3 C5.68 3 4.36 3 3 3 Z M11 3 C11 5.64 11 8.28 11 11 C11.33 11 11.66 11 12 11 C12 8.36 12 5.72 12 3 C11.67 3 11.34 3 11 3 Z " fill="#E4795C" transform="translate(205,91)"/>
<path d="M0 0 C0 0.66 0 1.32 0 2 C-1.98 2.33 -3.96 2.66 -6 3 C-6.33 3.99 -6.66 4.98 -7 6 C-3.04 6 0.92 6 5 6 C5 6.33 5 6.66 5 7 C3.02 7 1.04 7 -1 7 C-1.33 8.32 -1.66 9.64 -2 11 C-2 9.68 -2 8.36 -2 7 C-3.65 7 -5.3 7 -7 7 C-7 10.3 -7 13.6 -7 17 C-7.33 17 -7.66 17 -8 17 C-8 13.7 -8 10.4 -8 7 C-9.32 7 -10.64 7 -12 7 C-12 10.3 -12 13.6 -12 17 C-12.66 17 -13.32 17 -14 17 C-14 14.69 -14 12.38 -14 10 C-14.66 9.67 -15.32 9.34 -16 9 C-15.34 9 -14.68 9 -14 9 C-14 8.34 -14 7.68 -14 7 C-14.68707031 7.08378906 -15.37414062 7.16757813 -16.08203125 7.25390625 C-16.98308594 7.35574219 -17.88414062 7.45757812 -18.8125 7.5625 C-19.70582031 7.66691406 -20.59914062 7.77132812 -21.51953125 7.87890625 C-24 8 -24 8 -27 7 C-27 10.3 -27 13.6 -27 17 C-27.33 17 -27.66 17 -28 17 C-28 13.7 -28 10.4 -28 7 C-28.66 6.67 -29.32 6.34 -30 6 C-29.0625 3.5 -29.0625 3.5 -27 1 C-22.34479752 0.10710269 -18.95321704 0.36452197 -15 3 C-13.34450469 3.38499891 -11.6777567 3.72793135 -10 4 C-10 3.01 -10 2.02 -10 1 C-6.78548731 -0.60725635 -3.56387464 -0.05748185 0 0 Z " fill="#295727" transform="translate(187,115)"/>
<path d="M0 0 C13.53 0 27.06 0 41 0 C41 0.66 41 1.32 41 2 C39.87972412 2.03758423 39.87972412 2.03758423 38.73681641 2.07592773 C35.36602733 2.19168213 31.99553217 2.31450128 28.625 2.4375 C27.449375 2.47681641 26.27375 2.51613281 25.0625 2.55664062 C23.94101562 2.59853516 22.81953125 2.64042969 21.6640625 2.68359375 C20.10872803 2.73858032 20.10872803 2.73858032 18.52197266 2.79467773 C16.00574834 2.84164223 16.00574834 2.84164223 14 4 C14 7.3 14 10.6 14 14 C10.04248927 14.310393 7.66944984 14.38679324 4.1875 12.375 C0.62523362 8.5073965 0 5.17764503 0 0 Z M8 4 C8 5.32 8 6.64 8 8 C7.01 8.495 7.01 8.495 6 9 C7.98 9.99 7.98 9.99 10 11 C10.33 8.69 10.66 6.38 11 4 C10.01 4 9.02 4 8 4 Z " fill="#86A685" transform="translate(8,119)"/>
<path d="M0 0 C0 0.99 0 1.98 0 3 C0.99 3 1.98 3 3 3 C3 6.63 3 10.26 3 14 C3.66 14 4.32 14 5 14 C5 11.03 5 8.06 5 5 C6.88343932 8.76687864 7.22057835 10.02958963 7 14 C7.66 14 8.32 14 9 14 C9 13.01 9 12.02 9 11 C9.99 11 10.98 11 12 11 C12 11.66 12 12.32 12 13 C11.34 13 10.68 13 10 13 C10 13.66 10 14.32 10 15 C3.84765625 15.09765625 3.84765625 15.09765625 2 15 C1 14 1 14 0.90234375 11.71484375 C0.91394531 10.79832031 0.92554687 9.88179687 0.9375 8.9375 C0.94652344 8.01839844 0.95554687 7.09929687 0.96484375 6.15234375 C0.97644531 5.44207031 0.98804687 4.73179688 1 4 C-0.98 4.99 -0.98 4.99 -3 6 C-2.484375 6.391875 -1.96875 6.78375 -1.4375 7.1875 C0 9 0 9 -0.25 11.625 C-1 14 -1 14 -2 15 C-4.9375 15.1875 -4.9375 15.1875 -8 15 C-8.66 14.34 -9.32 13.68 -10 13 C-10 11.68 -10 10.36 -10 9 C-9.34 8.67 -8.68 8.34 -8 8 C-8.66 7.34 -9.32 6.68 -10 6 C-10.125 3.375 -10.125 3.375 -10 1 C-6.78548731 -0.60725635 -3.56387464 -0.05748185 0 0 Z " fill="#F3C1A7" transform="translate(104,91)"/>
<path d="M0 0 C4.62 0 9.24 0 14 0 C14 0.99 14 1.98 14 3 C14.66 3.33 15.32 3.66 16 4 C14.68 4.33 13.36 4.66 12 5 C12 3.68 12 2.36 12 1 C8.37 1 4.74 1 1 1 C1 12.22 1 23.44 1 35 C4.63 35 8.26 35 12 35 C11.95359375 34.13117187 11.9071875 33.26234375 11.859375 32.3671875 C11.56353462 22.92142691 11.56353462 22.92142691 13.6875 18.4375 C20.52956503 11.22559361 20.52956503 11.22559361 25.609375 10.76171875 C32.06315932 10.60920395 36.14769693 10.5411269 41 15 C41.495 15.99 41.495 15.99 42 17 C41.46375 16.71125 40.9275 16.4225 40.375 16.125 C34.03082136 13.11986275 28.86585859 12.24180607 22 14 C18.94310542 15.75909829 16.60338296 17.79323408 15 21 C14.73634236 24.22614424 14.5556966 27.44547376 14.39453125 30.67773438 C14.10079169 35.89920831 14.10079169 35.89920831 13 37 C11.00200428 37.09873816 9.00042842 37.12971799 7 37.125 C5.906875 37.12757812 4.81375 37.13015625 3.6875 37.1328125 C1 37 1 37 0 36 C-0.08855161 33.3337397 -0.11524673 30.69352886 -0.09765625 28.02734375 C-0.0962413 27.22970108 -0.09482635 26.43205841 -0.09336853 25.61024475 C-0.08775316 23.05262565 -0.07519812 20.49509282 -0.0625 17.9375 C-0.05748698 16.20768355 -0.05292373 14.47786574 -0.04882812 12.74804688 C-0.03777875 8.49866447 -0.02050386 4.24934688 0 0 Z " fill="#8DAD8C" transform="translate(81,10)"/>
<path d="M0 0 C3.23490776 0.55774272 4.97855006 1.37211508 7 4 C7 4.99 7 5.98 7 7 C8.05960938 6.98839844 9.11921875 6.97679688 10.2109375 6.96484375 C11.59895658 6.95546524 12.98697755 6.94636511 14.375 6.9375 C15.07367188 6.92912109 15.77234375 6.92074219 16.4921875 6.91210938 C21.7734375 6.88671875 21.7734375 6.88671875 24 8 C24 8.99 24 9.98 24 11 C23.34 11 22.68 11 22 11 C22 14.3 22 17.6 22 21 C20.68 21 19.36 21 18 21 C18 19.68 18 18.36 18 17 C17.67 18.32 17.34 19.64 17 21 C14.625 20.75 14.625 20.75 12 20 C10.6875 17.9375 10.6875 17.9375 10 16 C11.32 15.67 12.64 15.34 14 15 C14 13.35 14 11.7 14 10 C15.65 10 17.3 10 19 10 C18.814375 10.721875 18.62875 11.44375 18.4375 12.1875 C17.98004693 15.12826973 18.26483643 17.14103058 19 20 C19.66 20 20.32 20 21 20 C21 16.7 21 13.4 21 10 C18.16730334 8.58365167 15.52533562 8.6536995 12.375 8.4375 C11.18648437 8.35371094 9.99796875 8.26992187 8.7734375 8.18359375 C7.85820312 8.12300781 6.94296875 8.06242187 6 8 C6 7.34 6 6.68 6 6 C3.69 5.67 1.38 5.34 -1 5 C-1 5.66 -1 6.32 -1 7 C0.98 7 2.96 7 5 7 C5 7.66 5 8.32 5 9 C2.03 9 -0.94 9 -4 9 C-4.33 9.66 -4.66 10.32 -5 11 C-4.32902328 6.80639551 -2.1441606 3.59665648 0 0 Z M15 11 C15.33 11.99 15.66 12.98 16 14 C16.66 14 17.32 14 18 14 C18 13.01 18 12.02 18 11 C17.01 11 16.02 11 15 11 Z " fill="#B7CCB5" transform="translate(129,112)"/>
<path d="M0 0 C2.25 -0.25 2.25 -0.25 5 0 C5.58007812 0.65097656 6.16015625 1.30195312 6.7578125 1.97265625 C9.7334375 4.66316039 11.66725705 4.55795762 15.625 4.6875 C21.86585366 4.93292683 21.86585366 4.93292683 24 6 C24 6.99 24 7.98 24 9 C23.34 9.66 22.68 10.32 22 11 C22.32041397 13.60280568 22.32041397 13.60280568 23 16 C22.4121875 15.2884375 22.4121875 15.2884375 21.8125 14.5625 C19.59191626 12.64820367 17.86624291 12.38733012 15 12 C15 11.67 15 11.34 15 11 C16.65 11 18.3 11 20 11 C20 10.01 20 9.02 20 8 C18.20843648 7.83222817 16.4167455 7.66581706 14.625 7.5 C13.12839844 7.36078125 13.12839844 7.36078125 11.6015625 7.21875 C9.10296264 6.97207053 9.10296264 6.97207053 7 7 C-0.66666667 7 -8.33333333 7 -16 7 C-15.67 5.68 -15.34 4.36 -15 3 C-14.01 3 -13.02 3 -12 3 C-10.7625 2.690625 -10.7625 2.690625 -9.5 2.375 C-7 2 -7 2 -4 4 C-2.68 4 -1.36 4 0 4 C0 2.68 0 1.36 0 0 Z " fill="#9EB89D" transform="translate(196,114)"/>
<path d="M0 0 C-0.33 0.556875 -0.66 1.11375 -1 1.6875 C-2.16594721 4.38375292 -2.29134297 6.08657033 -2 9 C-1.08431094 11.25132517 -1.08431094 11.25132517 0 13 C-1 14 -1 14 -4.9375 14.0625 C-6.29171764 14.04529578 -7.64590241 14.02492204 -9 14 C-9.66 14 -10.32 14 -11 14 C-12.33783393 13.68521554 -13.67203709 13.35412344 -15 13 C-14.01 13 -13.02 13 -12 13 C-12 9.37 -12 5.74 -12 2 C-11.34 2 -10.68 2 -10 2 C-10 1.01 -10 0.02 -10 -1 C-5.94568308 -2.15837626 -3.78187881 -1.83691257 0 0 Z " fill="#F2C3A8" transform="translate(136,92)"/>
<path d="M0 0 C1.65 0 3.3 0 5 0 C5 4.62 5 9.24 5 14 C0 15 0 15 -5 15 C-5 10.38 -5 5.76 -5 1 C-3.68 1.33 -2.36 1.66 -1 2 C-0.67 1.34 -0.34 0.68 0 0 Z " fill="#DC3D1E" transform="translate(88,91)"/>
<path d="M0 0 C0.33 0 0.66 0 1 0 C1.33 21.12 1.66 42.24 2 64 C15.365 64.495 15.365 64.495 29 65 C28.67 65.66 28.34 66.32 28 67 C18.1 67 8.2 67 -2 67 C-1.67 64.69 -1.34 62.38 -1 60 C-0.89353189 57.90075354 -0.82578133 55.79922424 -0.79467773 53.69750977 C-0.77473251 52.49679337 -0.75478729 51.29607697 -0.73423767 50.05897522 C-0.70916893 48.14452858 -0.70916893 48.14452858 -0.68359375 46.19140625 C-0.66299015 44.85619005 -0.64199286 43.52097988 -0.62062073 42.18577576 C-0.56575137 38.69244298 -0.51618906 35.19905482 -0.46777344 31.70562744 C-0.41729977 28.13247826 -0.36174951 24.55940829 -0.30664062 20.98632812 C-0.19948969 13.99095423 -0.09795138 6.9955086 0 0 Z " fill="#EF1E03" transform="translate(69,8)"/>
<path d="M0 0 C6.93 0 13.86 0 21 0 C20.67 3.63 20.34 7.26 20 11 C19.34 11 18.68 11 18 11 C18 9.02 18 7.04 18 5 C16.68 5 15.36 5 14 5 C14 5.66 14 6.32 14 7 C13.01 6.67 12.02 6.34 11 6 C11 5.34 11 4.68 11 4 C13.31 4 15.62 4 18 4 C17.67 3.34 17.34 2.68 17 2 C14.36 2 11.72 2 9 2 C9 5.3 9 8.6 9 12 C7.68 12 6.36 12 5 12 C4.67 8.7 4.34 5.4 4 2 C3.67 4.97 3.34 7.94 3 11 C2.34 11 1.68 11 1 11 C1 10.01 1 9.02 1 8 C0.34 7.67 -0.32 7.34 -1 7 C-0.34 7 0.32 7 1 7 C0.67 4.69 0.34 2.38 0 0 Z " fill="#5B805A" transform="translate(55,121)"/>
<path d="M0 0 C1.32 0 2.64 0 4 0 C4 1.98 4 3.96 4 6 C6.7839183 4.60804085 6.97898997 2.84424221 8 0 C8.99 0 9.98 0 11 0 C11 4.29 11 8.58 11 13 C10.34 13 9.68 13 9 13 C9 12.01 9 11.02 9 10 C8.34 10 7.68 10 7 10 C7 11.32 7 12.64 7 14 C4.69 14 2.38 14 0 14 C0 9.38 0 4.76 0 0 Z " fill="#D93B1B" transform="translate(179,92)"/>
<path d="M0 0 C0.33 0.99 0.66 1.98 1 3 C0.01 3 -0.98 3 -2 3 C-1.34 3.66 -0.68 4.32 0 5 C0.66 5 1.32 5 2 5 C2.33 3.35 2.66 1.7 3 0 C4.32 0 5.64 0 7 0 C7 3.3 7 6.6 7 10 C7.66 10 8.32 10 9 10 C9 6.7 9 3.4 9 0 C9.33 0.66 9.66 1.32 10 2 C11.32 2 12.64 2 14 2 C15.75 3.5 15.75 3.5 17 5 C17.66 4.67 18.32 4.34 19 4 C19.33 4.99 19.66 5.98 20 7 C20.33 6.01 20.66 5.02 21 4 C21.66 4 22.32 4 23 4 C22.3125 6.4375 22.3125 6.4375 21 9 C18.6875 10.125 18.6875 10.125 16 10 C13.1875 7.5625 13.1875 7.5625 11 5 C10.67 6.98 10.34 8.96 10 11 C2.81218274 11.60913706 2.81218274 11.60913706 -1 8.75 C-3 6 -3 6 -3 2 C-2.01 2 -1.02 2 0 2 C0 1.34 0 0.68 0 0 Z M4 1 C3.34 2.65 2.68 4.3 2 6 C3.98 6.99 3.98 6.99 6 8 C6 5.69 6 3.38 6 1 C5.34 1 4.68 1 4 1 Z " fill="#ABC5A8" transform="translate(86,122)"/>
<path d="M0 0 C0.99 0 1.98 0 3 0 C3.33 1.65 3.66 3.3 4 5 C4.66 5 5.32 5 6 5 C6 6.98 6 8.96 6 11 C7.32 11 8.64 11 10 11 C10 7.37 10 3.74 10 0 C10.66 0 11.32 0 12 0 C12.02694851 1.95825873 12.04637218 3.91662226 12.0625 5.875 C12.07410156 6.96554688 12.08570313 8.05609375 12.09765625 9.1796875 C12 12 12 12 11 14 C8.36 14 5.72 14 3 14 C3 12.68 3 11.36 3 10 C2.01 10 1.02 10 0 10 C0 10.99 0 11.98 0 13 C-0.66 13 -1.32 13 -2 13 C-1.85851011 11.3954444 -1.71164314 9.79136233 -1.5625 8.1875 C-1.48128906 7.29417969 -1.40007813 6.40085937 -1.31640625 5.48046875 C-1 3 -1 3 0 0 Z " fill="#E67C5D" transform="translate(23,92)"/>
<path d="M0 0 C5.23274388 -0.02467917 10.46545403 -0.04285003 15.69824219 -0.05493164 C17.47917267 -0.05996711 19.260099 -0.06679581 21.04101562 -0.07543945 C23.59766665 -0.08753942 26.15426312 -0.09323609 28.7109375 -0.09765625 C29.50994476 -0.10281754 30.30895203 -0.10797882 31.13217163 -0.11329651 C36.77225659 -0.11387171 36.77225659 -0.11387171 39 1 C39 1.99 39 2.98 39 4 C38.34 4 37.68 4 37 4 C37 7.3 37 10.6 37 14 C35.68 14 34.36 14 33 14 C32.34 13.34 31.68 12.68 31 12 C29.68252676 11.30251417 28.35085807 10.63040043 27 10 C29.6666419 8.66667905 31.16680303 9.32897967 34 10 C34 10.99 34 11.98 34 13 C34.66 13 35.32 13 36 13 C36 9.7 36 6.4 36 3 C24.45 2.67 12.9 2.34 1 2 C1 2.66 1 3.32 1 4 C0.34 4 -0.32 4 -1 4 C-0.67 2.68 -0.34 1.36 0 0 Z " fill="#9FBD9E" transform="translate(82,119)"/>
<path d="M0 0 C2.97 0 5.94 0 9 0 C9 4.62 9 9.24 9 14 C12.1246875 13.7525 12.1246875 13.7525 15.3125 13.5 C18.557899 13.24293869 21.74441735 13 25 13 C23 15 23 15 19.55859375 15.23046875 C18.18482696 15.22647911 16.81105886 15.21173177 15.4375 15.1875 C14.73947266 15.18685547 14.04144531 15.18621094 13.32226562 15.18554688 C8.14031158 15.14031158 8.14031158 15.14031158 7 14 C6.54234333 11.01110641 6.29679049 8.01030352 6 5 C5.67 7.97 5.34 10.94 5 14 C4.01 14 3.02 14 2 14 C2 10.37 2 6.74 2 3 C1.34 3 0.68 3 0 3 C0 2.01 0 1.02 0 0 Z " fill="#F3B9A0" transform="translate(196,91)"/>
<path d="M0 0 C1.48831242 0.00667405 2.97660807 0.01863442 4.46484375 0.03515625 C5.22345703 0.03966797 5.98207031 0.04417969 6.76367188 0.04882812 C8.64326246 0.06064945 10.52281274 0.07858547 12.40234375 0.09765625 C12.40234375 0.42765625 12.40234375 0.75765625 12.40234375 1.09765625 C7.45234375 1.09765625 2.50234375 1.09765625 -2.59765625 1.09765625 C-2.59765625 3.73765625 -2.59765625 6.37765625 -2.59765625 9.09765625 C1.03234375 9.09765625 4.66234375 9.09765625 8.40234375 9.09765625 C7.40234375 12.09765625 7.40234375 12.09765625 4.96484375 13.78515625 C-0.42188006 15.76973871 -5.52164852 16.33930056 -10.94921875 14.1484375 C-14.33375804 12.19771213 -16.23888246 10.7703571 -18.09765625 7.28515625 C-18.26265625 6.56328125 -18.42765625 5.84140625 -18.59765625 5.09765625 C-18.12714844 5.51917969 -17.65664062 5.94070312 -17.171875 6.375 C-16.23794922 7.19677734 -16.23794922 7.19677734 -15.28515625 8.03515625 C-14.67027344 8.58042969 -14.05539063 9.12570313 -13.421875 9.6875 C-10.04695022 12.29638189 -7.01627084 12.20846348 -2.91015625 12.16015625 C-1.91628906 12.15113281 -0.92242187 12.14210938 0.1015625 12.1328125 C0.86082031 12.12121094 1.62007812 12.10960937 2.40234375 12.09765625 C0.09234375 11.43765625 -2.21765625 10.77765625 -4.59765625 10.09765625 C-4.62454841 8.61858733 -4.64400246 7.13938142 -4.66015625 5.66015625 C-4.67175781 4.83644531 -4.68335937 4.01273438 -4.6953125 3.1640625 C-4.52465699 -0.44700819 -3.75446463 0.10191272 0 0 Z " fill="#F2BFA5" transform="translate(113.59765625,48.90234375)"/>
<path d="M0 0 C2.31 0 4.62 0 7 0 C7.33 1.32 7.66 2.64 8 4 C6.68 4.33 5.36 4.66 4 5 C5.32 5 6.64 5 8 5 C8 7.31 8 9.62 8 12 C4.12506344 13.07637127 2.47547073 12.94566951 -1 11 C-1.0270043 9.54176788 -1.04639787 8.08339325 -1.0625 6.625 C-1.07410156 5.81289062 -1.08570313 5.00078125 -1.09765625 4.1640625 C-1 2 -1 2 0 0 Z M4 8 C5 10 5 10 5 10 Z " fill="#EAA487" transform="translate(137,92)"/>
<path d="M0 0 C0.99 0.33 1.98 0.66 3 1 C2.34 1 1.68 1 1 1 C1 1.99 1 2.98 1 4 C-0.65 4.66 -2.3 5.32 -4 6 C0.96911366 4.87302957 0.96911366 4.87302957 5 2 C5.33 3.65 5.66 5.3 6 7 C7.134375 7.12375 8.26875 7.2475 9.4375 7.375 C10.613125 7.58125 11.78875 7.7875 13 8 C13.33 8.66 13.66 9.32 14 10 C10.6875 10.6875 10.6875 10.6875 7 11 C5.0625 9.5625 5.0625 9.5625 4 8 C3.01 8.66 2.02 9.32 1 10 C-5.08496732 10.54330065 -5.08496732 10.54330065 -8 8.8125 C-9 7 -9 7 -8.6875 4.3125 C-8.460625 3.549375 -8.23375 2.78625 -8 2 C-7.34 2.33 -6.68 2.66 -6 3 C-5.34 3 -4.68 3 -4 3 C-2.68 3 -1.36 3 0 3 C0 2.01 0 1.02 0 0 Z " fill="#98B396" transform="translate(204,122)"/>
<path d="M0 0 C1.33694701 0.7276077 2.65150708 1.4982135 3.9375 2.3125 C4.6284375 2.72113281 5.319375 3.12976563 6.03125 3.55078125 C8 4.8125 8 4.8125 10.9375 7.3125 C10.9375 8.6325 10.9375 9.9525 10.9375 11.3125 C8.4375 13.5625 8.4375 13.5625 5.9375 15.3125 C5.2775 14.9825 4.6175 14.6525 3.9375 14.3125 C4.5975 13.6525 5.2575 12.9925 5.9375 12.3125 C6.10431109 9.22902174 6.10431109 9.22902174 5.9375 6.3125 C-3.34881868 -0.87028793 -14.99482168 0.84057722 -26.0625 1.3125 C-20.5922484 -4.1577516 -6.78068528 -2.91440199 0 0 Z " fill="#799C7A" transform="translate(123.0625,11.6875)"/>
<path d="M0 0 C0.33 1.32 0.66 2.64 1 4 C1.99 4 2.98 4 4 4 C4 5.98 4 7.96 4 10 C4.66 10 5.32 10 6 10 C6 6.7 6 3.4 6 0 C6.33 0 6.66 0 7 0 C7 3.63 7 7.26 7 11 C5.68 11 4.36 11 3 11 C2.67 10.34 2.34 9.68 2 9 C-0.32156597 8.59270772 -2.6568787 8.25561323 -5 8 C-4.67 8.99 -4.34 9.98 -4 11 C-7.3309303 11.37010337 -8.62731223 11.27461204 -11.375 9.25 C-13 7 -13 7 -12.75 4.75 C-12.37875 3.88375 -12.37875 3.88375 -12 3 C-11.525625 3.825 -11.05125 4.65 -10.5625 5.5 C-10.046875 6.325 -9.53125 7.15 -9 8 C-8.67 8 -8.34 8 -8 8 C-7.67 6.68 -7.34 5.36 -7 4 C-4.69 3.34 -2.38 2.68 0 2 C0 1.34 0 0.68 0 0 Z " fill="#8BA888" transform="translate(52,122)"/>
<path d="M0 0 C0.66 0.33 1.32 0.66 2 1 C4.204364 1.22950319 6.41392173 1.41075933 8.625 1.5625 C9.81351563 1.64628906 11.00203125 1.73007813 12.2265625 1.81640625 C13.59941406 1.90728516 13.59941406 1.90728516 15 2 C14.01 2.495 14.01 2.495 13 3 C13.2475 4.11375 13.2475 4.11375 13.5 5.25 C14 8 14 8 14 12 C12.02 12 10.04 12 8 12 C9.32 11.34 10.64 10.68 12 10 C10.02 9.34 8.04 8.68 6 8 C6 6.68 6 5.36 6 4 C4.35 3.67 2.7 3.34 1 3 C1 3.99 1 4.98 1 6 C-1.31 6.66 -3.62 7.32 -6 8 C-5.67 7.01 -5.34 6.02 -5 5 C-3.35 5 -1.7 5 0 5 C0 3.35 0 1.7 0 0 Z " fill="#436A40" transform="translate(203,119)"/>
<path d="M0 0 C3.3 0 6.6 0 10 0 C9.67816308 3.347104 9.28066756 6.31587282 8 9.4375 C4.7187145 12.0010043 1.00991708 11.30263525 -3 11 C-3.59732819 8.23735711 -4 5.83967231 -4 3 C-3.34 3 -2.68 3 -2 3 C-2 5.31 -2 7.62 -2 10 C-1.34 10 -0.68 10 0 10 C0 6.7 0 3.4 0 0 Z M6 1 C6.99 2.485 6.99 2.485 8 4 C8.33 3.01 8.66 2.02 9 1 C8.01 1 7.02 1 6 1 Z " fill="#9FBC9B" transform="translate(175,122)"/>
<path d="M0 0 C1.98 0 3.96 0 6 0 C7 1 7 1 7.09765625 3.72265625 C7.08605469 4.82480469 7.07445312 5.92695312 7.0625 7.0625 C7.05347656 8.16722656 7.04445313 9.27195312 7.03515625 10.41015625 C7.02355469 11.26480469 7.01195312 12.11945313 7 13 C6.34 13 5.68 13 5 13 C4.67 11.35 4.34 9.7 4 8 C3.34 8 2.68 8 2 8 C2 9.65 2 11.3 2 13 C1.34 13 0.68 13 0 13 C0 8.71 0 4.42 0 0 Z M3 2 C4 5 4 5 4 5 Z " fill="#D33714" transform="translate(11,92)"/>
<path d="M0 0 C2.31 0 4.62 0 7 0 C6.67 4.62 6.34 9.24 6 14 C4.35 13.67 2.7 13.34 1 13 C0.67 8.71 0.34 4.42 0 0 Z " fill="#E78366" transform="translate(55,92)"/>
<path d="M0 0 C0.94875 0.350625 1.8975 0.70125 2.875 1.0625 C2.545 2.3825 2.215 3.7025 1.875 5.0625 C0.885 5.0625 -0.105 5.0625 -1.125 5.0625 C-1.125 6.0525 -1.125 7.0425 -1.125 8.0625 C-0.465 8.0625 0.195 8.0625 0.875 8.0625 C0.875 9.7125 0.875 11.3625 0.875 13.0625 C-0.775 13.3925 -2.425 13.7225 -4.125 14.0625 C-4.785 12.7425 -5.445 11.4225 -6.125 10.0625 C-3.65 11.0525 -3.65 11.0525 -1.125 12.0625 C-1.57875 11.32 -2.0325 10.5775 -2.5 9.8125 C-5.36309524 4.9672619 -5.36309524 4.9672619 -6.125 3.0625 C-5.795 2.0725 -5.465 1.0825 -5.125 0.0625 C-3.125 -0.9375 -3.125 -0.9375 0 0 Z " fill="#D13D21" transform="translate(162.125,90.9375)"/>
<path d="M0 0 C1.32 0 2.64 0 4 0 C6.24828052 4.49656104 6.16682272 8.07872966 6 13 C5.01 12.67 4.02 12.34 3 12 C3 11.34 3 10.68 3 10 C2.01 10 1.02 10 0 10 C0 10.99 0 11.98 0 13 C-0.66 13 -1.32 13 -2 13 C-1.34 8.71 -0.68 4.42 0 0 Z " fill="#E04524" transform="translate(113,92)"/>
<path d="M0 0 C0.66 0 1.32 0 2 0 C2 0.99 2 1.98 2 3 C2.66 3 3.32 3 4 3 C4 6.63 4 10.26 4 14 C4.99 14 5.98 14 7 14 C7 11.03 7 8.06 7 5 C7.33 5 7.66 5 8 5 C8 8.3 8 11.6 8 15 C6.35 15 4.7 15 3 15 C2.67 12.03 2.34 9.06 2 6 C1.67 8.97 1.34 11.94 1 15 C-1.64 15 -4.28 15 -7 15 C-7.33 13.68 -7.66 12.36 -8 11 C-7.34 11 -6.68 11 -6 11 C-6 11.99 -6 12.98 -6 14 C-5.34 13.67 -4.68 13.34 -4 13 C-3.53248212 10.64400765 -3.53248212 10.64400765 -3.375 7.9375 C-3.26285156 6.55884766 -3.26285156 6.55884766 -3.1484375 5.15234375 C-3.09945312 4.44207031 -3.05046875 3.73179688 -3 3 C-2.67 3 -2.34 3 -2 3 C-2 6.63 -2 10.26 -2 14 C-1.34 14 -0.68 14 0 14 C0 9.38 0 4.76 0 0 Z " fill="#F1CAB0" transform="translate(194,91)"/>
<path d="M0 0 C1.32 0.33 2.64 0.66 4 1 C4.66 4.96 5.32 8.92 6 13 C5.01 13 4.02 13 3 13 C3 12.01 3 11.02 3 10 C2.01 10 1.02 10 0 10 C0 10.99 0 11.98 0 13 C-0.66 13 -1.32 13 -2 13 C-1.85915204 11.20793453 -1.71216299 9.41635083 -1.5625 7.625 C-1.48128906 6.62726563 -1.40007813 5.62953125 -1.31640625 4.6015625 C-1 2 -1 2 0 0 Z " fill="#DB4021" transform="translate(39,92)"/>
<path d="M0 0 C8.91 0 17.82 0 27 0 C27 0.33 27 0.66 27 1 C22.38 1.33 17.76 1.66 13 2 C12.67 4.97 12.34 7.94 12 11 C11.34 11 10.68 11 10 11 C10 7.7 10 4.4 10 1 C8.68 1 7.36 1 6 1 C5.67 2.65 5.34 4.3 5 6 C4.01 6.33 3.02 6.66 2 7 C1.67 6.01 1.34 5.02 1 4 C1.99 4 2.98 4 4 4 C3.67 3.34 3.34 2.68 3 2 C2.01 2 1.02 2 0 2 C0 1.34 0 0.68 0 0 Z " fill="#385C36" transform="translate(83,121)"/>
<path d="M0 0 C1.32 0 2.64 0 4 0 C4.66 4.29 5.32 8.58 6 13 C5.01 13 4.02 13 3 13 C3 12.01 3 11.02 3 10 C2.01 10 1.02 10 0 10 C0 10.99 0 11.98 0 13 C-0.66 13 -1.32 13 -2 13 C-1.85915204 11.20793453 -1.71216299 9.41635083 -1.5625 7.625 C-1.48128906 6.62726563 -1.40007812 5.62953125 -1.31640625 4.6015625 C-1 2 -1 2 0 0 Z " fill="#D73B1E" transform="translate(149,92)"/>
<path d="M0 0 C1.65 0 3.3 0 5 0 C5 0.99 5 1.98 5 3 C3.68 2.34 2.36 1.68 1 1 C1 4.3 1 7.6 1 11 C-0.32 11 -1.64 11 -3 11 C-3.33 10.34 -3.66 9.68 -4 9 C-4.53625 9.268125 -5.0725 9.53625 -5.625 9.8125 C-8 10 -8 10 -11.25 7.75 C-12.1575 6.8425 -13.065 5.935 -14 5 C-14 4.01 -14 3.02 -14 2 C-11 2 -11 2 -8.8125 4 C-8.214375 4.66 -7.61625 5.32 -7 6 C-7 5.34 -7 4.68 -7 4 C-6.34 4 -5.68 4 -5 4 C-5 4.99 -5 5.98 -5 7 C-4.67 6.01 -4.34 5.02 -4 4 C-3.34 4 -2.68 4 -2 4 C-2 5.98 -2 7.96 -2 10 C-1.34 10 -0.68 10 0 10 C0 6.7 0 3.4 0 0 Z " fill="#A1BD9F" transform="translate(37,122)"/>
<path d="M0 0 C2.31 0 4.62 0 7 0 C7 0.66 7 1.32 7 2 C6.34 2 5.68 2 5 2 C5 5.63 5 9.26 5 13 C2.36 13.33 -0.28 13.66 -3 14 C-2.67 13.34 -2.34 12.68 -2 12 C-1.34 12.33 -0.68 12.66 0 13 C0 8.71 0 4.42 0 0 Z " fill="#EBA287" transform="translate(119,92)"/>
<path d="M0 0 C0.99 0 1.98 0 3 0 C3.33872513 1.41538717 3.67074624 2.83237963 4 4.25 C4.185625 5.03890625 4.37125 5.8278125 4.5625 6.640625 C5 9 5 9 5 13 C4.34 13 3.68 13 3 13 C3 12.01 3 11.02 3 10 C2.01 10 1.02 10 0 10 C-0.33 10.99 -0.66 11.98 -1 13 C-1.66 13 -2.32 13 -3 13 C-2.69240822 11.02006459 -2.3787932 9.04106401 -2.0625 7.0625 C-1.88847656 5.96035156 -1.71445313 4.85820313 -1.53515625 3.72265625 C-1 1 -1 1 0 0 Z " fill="#E04C2B" transform="translate(76,92)"/>
<path d="M0 0 C1.32 0 2.64 0 4 0 C4 3.96 4 7.92 4 12 C5.32 12 6.64 12 8 12 C8 12.66 8 13.32 8 14 C5.36 14 2.72 14 0 14 C0 9.38 0 4.76 0 0 Z " fill="#E5755B" transform="translate(166,91)"/>
<path d="M0 0 C0 -0.99 0 -1.98 0 -3 C0.66 -2.67 1.32 -2.34 2 -2 C1.67 -0.68 1.34 0.64 1 2 C-4.94 2 -10.88 2 -17 2 C-16.67 0.68 -16.34 -0.64 -16 -2 C-10.10304872 -3.70701221 -5.58011183 -1.95193635 0 0 Z " fill="#8CAA89" transform="translate(177,119)"/>
<path d="M0 0 C1.65 0 3.3 0 5 0 C5 4.62 5 9.24 5 14 C1.33418546 14.73316291 -1.36699832 15.10380005 -5 15 C-4.34 14.67 -3.68 14.34 -3 14 C-3 12.02 -3 10.04 -3 8 C-2.34 8 -1.68 8 -1 8 C-0.71125 8.804375 -0.4225 9.60875 -0.125 10.4375 C0.73262568 13.1326468 0.73262568 13.1326468 3 14 C3 9.71 3 5.42 3 1 C2.34 1 1.68 1 1 1 C1 2.98 1 4.96 1 7 C-0.0625 5.1875 -0.0625 5.1875 -1 3 C-0.67 2.01 -0.34 1.02 0 0 Z " fill="#F3C0A5" transform="translate(88,91)"/>
<path d="M0 0 C2.35964273 0.40683495 3.85934088 0.89814339 5.8125 2.3125 C7 4 7 4 6.6875 6.1875 C6.3471875 7.0846875 6.3471875 7.0846875 6 8 C6 7.34 6 6.68 6 6 C3.69 5.67 1.38 5.34 -1 5 C-1 5.66 -1 6.32 -1 7 C0.98 7 2.96 7 5 7 C5 7.66 5 8.32 5 9 C2.03 9 -0.94 9 -4 9 C-4.33 9.66 -4.66 10.32 -5 11 C-4.32902328 6.80639551 -2.1441606 3.59665648 0 0 Z " fill="#98B596" transform="translate(129,112)"/>
<path d="M0 0 C4.62 0 9.24 0 14 0 C14 0.99 14 1.98 14 3 C14.66 3.33 15.32 3.66 16 4 C14.68 4.33 13.36 4.66 12 5 C12 3.68 12 2.36 12 1 C8.37 1 4.74 1 1 1 C1 12.55 1 24.1 1 36 C0.67 36 0.34 36 0 36 C0 24.12 0 12.24 0 0 Z " fill="#A8C8A7" transform="translate(81,10)"/>
<path d="M0 0 C0.66 0 1.32 0 2 0 C2 1.65 2 3.3 2 5 C2.99 5 3.98 5 5 5 C5 3.35 5 1.7 5 0 C5.66 0 6.32 0 7 0 C7 4.29 7 8.58 7 13 C6.34 13 5.68 13 5 13 C5 11.02 5 9.04 5 7 C4.01 7 3.02 7 2 7 C2 8.98 2 10.96 2 13 C1.34 13 0.68 13 0 13 C0 8.71 0 4.42 0 0 Z " fill="#D83617" transform="translate(64,92)"/>
<path d="M0 0 C0.66 0 1.32 0 2 0 C2 0.66 2 1.32 2 2 C8.83782175 4.4420792 15.79431807 4.62022758 23 5 C23 5.33 23 5.66 23 6 C21.22882813 5.96519531 21.22882813 5.96519531 19.421875 5.9296875 C17.86458967 5.91092503 16.30729748 5.89272534 14.75 5.875 C13.58404297 5.84986328 13.58404297 5.84986328 12.39453125 5.82421875 C6.89839302 5.71863692 6.89839302 5.71863692 2 8 C1.34 8.66 0.68 9.32 0 10 C-1 9 -1 9 -1.125 5.5625 C-1 2 -1 2 0 0 Z " fill="#EE7617" transform="translate(104,30)"/>
<path d="M0 0 C1.98 0 3.96 0 6 0 C6 0.66 6 1.32 6 2 C5.01 2 4.02 2 3 2 C3 2.99 3 3.98 3 5 C3.99 5 4.98 5 6 5 C6 5.66 6 6.32 6 7 C4.68 7 3.36 7 2 7 C2 8.32 2 9.64 2 11 C3.32 11 4.64 11 6 11 C6 11.66 6 12.32 6 13 C4.02 13 2.04 13 0 13 C0 8.71 0 4.42 0 0 Z " fill="#D53414" transform="translate(205,92)"/>
<path d="M0 0 C4.29 0 8.58 0 13 0 C12.67 3.63 12.34 7.26 12 11 C11.34 11 10.68 11 10 11 C10 9.02 10 7.04 10 5 C8.68 5 7.36 5 6 5 C6 5.66 6 6.32 6 7 C5.01 6.67 4.02 6.34 3 6 C3 5.34 3 4.68 3 4 C5.31 4 7.62 4 10 4 C9.67 3.34 9.34 2.68 9 2 C7.329375 2.061875 7.329375 2.061875 5.625 2.125 C2 2 2 2 0 0 Z " fill="#335E31" transform="translate(63,121)"/>
<path d="M0 0 C0.99 0 1.98 0 3 0 C3 4.29 3 8.58 3 13 C2.34 13 1.68 13 1 13 C1 12.01 1 11.02 1 10 C-0.32 9.67 -1.64 9.34 -3 9 C-2.30058404 5.85262818 -1.23921302 2.97411124 0 0 Z " fill="#DE4624" transform="translate(187,92)"/>
<path d="M0 0 C0.66 0 1.32 0 2 0 C2.433125 1.423125 2.433125 1.423125 2.875 2.875 C3.76825109 6.05211578 3.76825109 6.05211578 6 8 C6 8.99 6 9.98 6 11 C3.525 10.01 3.525 10.01 1 9 C1.99 10.485 1.99 10.485 3 12 C4.32 12 5.64 12 7 12 C7 10.02 7 8.04 7 6 C7.66 6 8.32 6 9 6 C9.625 8.875 9.625 8.875 10 12 C8 14 8 14 5 14.25 C2 14 2 14 0 12 C0 10.68 0 9.36 0 8 C0.66 7.67 1.32 7.34 2 7 C1.34 6.34 0.68 5.68 0 5 C-0.125 2.375 -0.125 2.375 0 0 Z " fill="#F2C8AE" transform="translate(94,92)"/>
<path d="M0 0 C-0.66 1.65 -1.32 3.3 -2 5 C-4 4 -4 4 -6 2 C-6.26932521 6.65052872 -6.26932521 6.65052872 -5 11 C-7.46800047 9.84826645 -9.04783565 8.95216435 -11 7 C-11 6.01 -11 5.02 -11 4 C-10.34 4 -9.68 4 -9 4 C-9 3.01 -9 2.02 -9 1 C-2.25 -1.125 -2.25 -1.125 0 0 Z " fill="#52764F" transform="translate(51,121)"/>
<path d="M0 0 C2.00720923 0.28674418 4.0085944 0.61866701 6 1 C5.67 3.64 5.34 6.28 5 9 C0.25 8.25 0.25 8.25 -2 6 C-1.44444444 1.44444444 -1.44444444 1.44444444 0 0 Z M1 2 C2 4 2 4 2 4 Z " fill="#749172" transform="translate(165,124)"/>
<path d="M0 0 C2.97 0 5.94 0 9 0 C8.01 0.495 8.01 0.495 7 1 C7 4.3 7 7.6 7 11 C4.69 11 2.38 11 0 11 C0.66 10.67 1.32 10.34 2 10 C2.46523063 8.10466658 2.46523063 8.10466658 2.625 5.9375 C2.74875 4.638125 2.8725 3.33875 3 2 C2.01 3.485 2.01 3.485 1 5 C0.34 4.67 -0.32 4.34 -1 4 C-0.67 2.68 -0.34 1.36 0 0 Z " fill="#ABC5A6" transform="translate(15,122)"/>
<path d="M0 0 C1.98 0 3.96 0 6 0 C6 0.66 6 1.32 6 2 C4.68 2 3.36 2 2 2 C2 2.99 2 3.98 2 5 C2.99 5 3.98 5 5 5 C5 5.66 5 6.32 5 7 C4.01 7 3.02 7 2 7 C2 8.32 2 9.64 2 11 C3.32 11 4.64 11 6 11 C6 11.66 6 12.32 6 13 C4.02 13 2.04 13 0 13 C0 8.71 0 4.42 0 0 Z " fill="#D33C1B" transform="translate(128,92)"/>
<path d="M0 0 C2.31 0 4.62 0 7 0 C7 0.66 7 1.32 7 2 C6.34 2 5.68 2 5 2 C5 5.63 5 9.26 5 13 C4.01 13 3.02 13 2 13 C2 9.37 2 5.74 2 2 C1.34 2 0.68 2 0 2 C0 1.34 0 0.68 0 0 Z " fill="#D55231" transform="translate(196,92)"/>
<path d="M0 0 C1.65 0 3.3 0 5 0 C5.33 0.66 5.66 1.32 6 2 C4.68 2 3.36 2 2 2 C2.70985103 4.99613135 2.70985103 4.99613135 4.625 6.375 C5.07875 6.91125 5.5325 7.4475 6 8 C5.6875 10.6875 5.6875 10.6875 5 13 C2.03 12.505 2.03 12.505 -1 12 C-1 11.01 -1 10.02 -1 9 C1.475 9.99 1.475 9.99 4 11 C2.24545615 7.81765895 2.24545615 7.81765895 0 5 C-0.04063832 3.33382885 -0.042721 1.66611905 0 0 Z " fill="#D33E22" transform="translate(47,92)"/>
<path d="M0 0 C1.98 0 3.96 0 6 0 C6 0.66 6 1.32 6 2 C4.68 1.67 3.36 1.34 2 1 C2.27617533 2.94074861 2.27617533 2.94074861 3 5 C3.99 5.66 4.98 6.32 6 7 C6.1875 9.625 6.1875 9.625 6 12 C4.35 12.33 2.7 12.66 1 13 C0.34 11.68 -0.32 10.36 -1 9 C1.475 9.99 1.475 9.99 4 11 C2.24545615 7.81765895 2.24545615 7.81765895 0 5 C-0.04063832 3.33382885 -0.042721 1.66611905 0 0 Z " fill="#D13B1F" transform="translate(96,92)"/>
<path d="M0 0 C0.99 0.33 1.98 0.66 3 1 C2.34 1 1.68 1 1 1 C1 1.99 1 2.98 1 4 C-0.65 4.66 -2.3 5.32 -4 6 C-2.35 6.33 -0.7 6.66 1 7 C0.67 7.66 0.34 8.32 0 9 C-2.64 8.67 -5.28 8.34 -8 8 C-8.33 6.35 -8.66 4.7 -9 3 C-6 3 -3 3 0 3 C0 2.01 0 1.02 0 0 Z " fill="#7A9B78" transform="translate(204,122)"/>
<path d="M0 0 C1.65 0 3.3 0 5 0 C4.6875 2.375 4.6875 2.375 4 5 C3.01 5.66 2.02 6.32 1 7 C1.66 7.33 2.32 7.66 3 8 C3 8.99 3 9.98 3 11 C0.625 10.75 0.625 10.75 -2 10 C-3.3125 7.9375 -3.3125 7.9375 -4 6 C-2.68 5.67 -1.36 5.34 0 5 C0 3.35 0 1.7 0 0 Z M1 1 C1.33 1.99 1.66 2.98 2 4 C2.66 4 3.32 4 4 4 C4 3.01 4 2.02 4 1 C3.01 1 2.02 1 1 1 Z " fill="#8EAD8E" transform="translate(143,122)"/>
<path d="M0 0 C0.66 0 1.32 0 2 0 C2 3.3 2 6.6 2 10 C2.99 10 3.98 10 5 10 C4.67 8.35 4.34 6.7 4 5 C4.99 5 5.98 5 7 5 C7 6.98 7 8.96 7 11 C2.25 12.125 2.25 12.125 0 11 C0 7.37 0 3.74 0 0 Z " fill="#CF3314" transform="translate(138,93)"/>
<path d="M0 0 C1.98 0 3.96 0 6 0 C6.33 0.99 6.66 1.98 7 3 C9.31 3 11.62 3 14 3 C13.67 4.32 13.34 5.64 13 7 C13 6.34 13 5.68 13 5 C10.69 4.67 8.38 4.34 6 4 C6 3.34 6 2.68 6 2 C5.34 2 4.68 2 4 2 C3.67 3.32 3.34 4.64 3 6 C1.35 6 -0.3 6 -2 6 C-0.68 5.67 0.64 5.34 2 5 C2 4.01 2 3.02 2 2 C1.34 2 0.68 2 0 2 C0 1.34 0 0.68 0 0 Z " fill="#3A6338" transform="translate(103,124)"/>
<path d="M0 0 C2.31 0.33 4.62 0.66 7 1 C7.33 1.99 7.66 2.98 8 4 C7 5 7 5 4.4375 5.0625 C3.2309375 5.0315625 3.2309375 5.0315625 2 5 C2 6.98 2 8.96 2 11 C1.01 11 0.02 11 -1 11 C-1 9.35 -1 7.7 -1 6 C-1.66 6 -2.32 6 -3 6 C-3 5.34 -3 4.68 -3 4 C-0.03 4 2.94 4 6 4 C6 3.34 6 2.68 6 2 C4.02 2 2.04 2 0 2 C0 1.34 0 0.68 0 0 Z " fill="#355F33" transform="translate(128,117)"/>
<path d="M0 0 C1.98 0 3.96 0 6 0 C5.67 3.63 5.34 7.26 5 11 C3.68 11 2.36 11 1 11 C0.67 7.37 0.34 3.74 0 0 Z M3 2 C3 4.64 3 7.28 3 10 C3.33 10 3.66 10 4 10 C4 7.36 4 4.72 4 2 C3.67 2 3.34 2 3 2 Z " fill="#E97F61" transform="translate(213,92)"/>
<path d="M0 0 C0.0825 0.5775 0.165 1.155 0.25 1.75 C0.87422118 4.18168052 0.87422118 4.18168052 3.0625 6.0625 C3.701875 6.701875 4.34125 7.34125 5 8 C5 8.99 5 9.98 5 11 C2.525 10.01 2.525 10.01 0 9 C0.33 9.99 0.66 10.98 1 12 C0.01 11.67 -0.98 11.34 -2 11 C-2.25 3.375 -2.25 3.375 0 0 Z M-1 5 C-1 5.99 -1 6.98 -1 8 C-0.34 8 0.32 8 1 8 C0.67 7.01 0.34 6.02 0 5 C-0.33 5 -0.66 5 -1 5 Z " fill="#F4CEB2" transform="translate(156,92)"/>
<path d="M0 0 C2.31 0 4.62 0 7 0 C7 0.66 7 1.32 7 2 C6.34 2 5.68 2 5 2 C5 5.63 5 9.26 5 13 C4.34 13 3.68 13 3 13 C3 9.37 3 5.74 3 2 C2.01 2 1.02 2 0 2 C0 1.34 0 0.68 0 0 Z " fill="#D33E20" transform="translate(104,92)"/>
<path d="M0 0 C2.64 0 5.28 0 8 0 C8 4.62 8 9.24 8 14 C7.67 14 7.34 14 7 14 C7 9.71 7 5.42 7 1 C6.34 1 5.68 1 5 1 C5 2.65 5 4.3 5 6 C4.01 6 3.02 6 2 6 C2 4.35 2 2.7 2 1 C1.34 0.67 0.68 0.34 0 0 Z " fill="#F0AE96" transform="translate(64,91)"/>
<path d="M0 0 C0.99 0 1.98 0 3 0 C5.32590854 3.63423209 5.16265833 6.77088331 5 11 C4.34 11 3.68 11 3 11 C0 4.5 0 4.5 0 0 Z " fill="#E36B4E" transform="translate(13,94)"/>
<path d="M0 0 C0.66 0 1.32 0 2 0 C2 3.96 2 7.92 2 12 C0.35 12.33 -1.3 12.66 -3 13 C-3 12.34 -3 11.68 -3 11 C-2.01 11 -1.02 11 0 11 C0 7.37 0 3.74 0 0 Z " fill="#D2401F" transform="translate(33,92)"/>
<path d="M0 0 C3.3 0 6.6 0 10 0 C8.68 0.33 7.36 0.66 6 1 C5.67 2.65 5.34 4.3 5 6 C4.01 6.33 3.02 6.66 2 7 C1.67 6.01 1.34 5.02 1 4 C1.99 4 2.98 4 4 4 C3.67 3.34 3.34 2.68 3 2 C2.01 2 1.02 2 0 2 C0 1.34 0 0.68 0 0 Z " fill="#2B5629" transform="translate(83,121)"/>
<path d="M0 0 C1.32 0 2.64 0 4 0 C3.67 2.64 3.34 5.28 3 8 C2.34 8 1.68 8 1 8 C0.34 7.34 -0.32 6.68 -1 6 C-0.625 2.875 -0.625 2.875 0 0 Z " fill="#E25B35" transform="translate(149,92)"/>
<path d="M0 0 C0.99 0 1.98 0 3 0 C3 0.99 3 1.98 3 3 C2.34 3 1.68 3 1 3 C0.67 6.3 0.34 9.6 0 13 C-0.66 13 -1.32 13 -2 13 C-1.85851011 11.3954444 -1.71164314 9.79136233 -1.5625 8.1875 C-1.48128906 7.29417969 -1.40007813 6.40085937 -1.31640625 5.48046875 C-1 3 -1 3 0 0 Z " fill="#D73213" transform="translate(23,92)"/>
<path d="M0 0 C0.99 0.33 1.98 0.66 3 1 C2.67 4.3 2.34 7.6 2 11 C1.34 11 0.68 11 0 11 C0 9.68 0 8.36 0 7 C-0.99 6.67 -1.98 6.34 -3 6 C-2.34 5.67 -1.68 5.34 -1 5 C-0.34444881 2.47266765 -0.34444881 2.47266765 0 0 Z " fill="#365F33" transform="translate(148,121)"/>
<path d="M0 0 C1.98 0.66 3.96 1.32 6 2 C5.67 3.32 5.34 4.64 5 6 C3.35 6.33 1.7 6.66 0 7 C0 5.68 0 4.36 0 3 C0.99 3 1.98 3 3 3 C1.35 2.67 -0.3 2.34 -2 2 C-1.34 1.34 -0.68 0.68 0 0 Z " fill="#EFBDA4" transform="translate(159,90)"/>
<path d="M0 0 C1.98 0 3.96 0 6 0 C6 0.66 6 1.32 6 2 C5.01 2 4.02 2 3 2 C3 2.99 3 3.98 3 5 C3.99 5 4.98 5 6 5 C5.67 5.66 5.34 6.32 5 7 C2.525 6.01 2.525 6.01 0 5 C0 3.35 0 1.7 0 0 Z " fill="#DD5D3E" transform="translate(205,92)"/>
<path d="M0 0 C0.33 0.99 0.66 1.98 1 3 C0.01 3 -0.98 3 -2 3 C-0.0745356 5.2236068 -0.0745356 5.2236068 3 6 C3.6875 8.0625 3.6875 8.0625 4 10 C1.0625 8.8125 1.0625 8.8125 -2 7 C-2.875 4.3125 -2.875 4.3125 -3 2 C-2.01 2 -1.02 2 0 2 C0 1.34 0 0.68 0 0 Z " fill="#85A182" transform="translate(86,122)"/>
<path d="M0 0 C2.64 0 5.28 0 8 0 C8 0.66 8 1.32 8 2 C6.6078125 2.1546875 6.6078125 2.1546875 5.1875 2.3125 C1.96745642 3.0070192 0.97420135 3.47740939 -1 6 C-0.67 4.02 -0.34 2.04 0 0 Z " fill="#4E734C" transform="translate(179,115)"/>
<path d="M0 0 C2.31 0 4.62 0 7 0 C7 0.66 7 1.32 7 2 C6.01 2 5.02 2 4 2 C4 5.3 4 8.6 4 12 C3.67 12 3.34 12 3 12 C3 8.7 3 5.4 3 2 C2.01 2 1.02 2 0 2 C0 1.34 0 0.68 0 0 Z " fill="#D22F12" transform="translate(119,92)"/>
<path d="M0 0 C4.29 0 8.58 0 13 0 C13 0.99 13 1.98 13 3 C13.66 3.33 14.32 3.66 15 4 C13.68 4.33 12.36 4.66 11 5 C11 3.68 11 2.36 11 1 C7.37 1 3.74 1 0 1 C0 0.67 0 0.34 0 0 Z " fill="#8BAE88" transform="translate(82,10)"/>
<path d="M0 0 C2.3431213 0.25561323 4.67843403 0.59270772 7 1 C7.33 1.66 7.66 2.32 8 3 C5.03 3 2.06 3 -1 3 C-0.67 2.01 -0.34 1.02 0 0 Z " fill="#EEF4ED" transform="translate(161,117)"/>
<path d="M0 0 C0.66 0.33 1.32 0.66 2 1 C2.33333333 3 2.66666667 5 3 7 C3.66 7.33 4.32 7.66 5 8 C2.69 8 0.38 8 -2 8 C-1.34 7.67 -0.68 7.34 0 7 C0 4.69 0 2.38 0 0 Z " fill="#EBAC8C" transform="translate(181,98)"/>
<path d="M0 0 C0 1.32 0 2.64 0 4 C-1.98 4 -3.96 4 -6 4 C-4.68 3.34 -3.36 2.68 -2 2 C-3.32 1.34 -4.64 0.68 -6 0 C-3.50907189 -1.24546405 -2.58919267 -0.7767578 0 0 Z " fill="#335833" transform="translate(217,127)"/>
<path d="M0 0 C2 2 2 2 2.1953125 3.9453125 C2.13020833 5.96354167 2.06510417 7.98177083 2 10 C1.01 9.67 0.02 9.34 -1 9 C-0.67 6.03 -0.34 3.06 0 0 Z " fill="#DA6C4D" transform="translate(117,95)"/>
<path d="M0 0 C0.33 1.32 0.66 2.64 1 4 C1.66 4 2.32 4 3 4 C3 5.32 3 6.64 3 8 C2.01 8 1.02 8 0 8 C-1.125 2.25 -1.125 2.25 0 0 Z " fill="#E0643E" transform="translate(39,92)"/>
<path d="M0 0 C0.66 0 1.32 0 2 0 C2 2.97 2 5.94 2 9 C1.01 9 0.02 9 -1 9 C-1.125 2.25 -1.125 2.25 0 0 Z " fill="#E58836" transform="translate(104,30)"/>
<path d="M0 0 C1.175625 0.5259375 1.175625 0.5259375 2.375 1.0625 C3.674375 1.5265625 3.674375 1.5265625 5 2 C5.66 1.67 6.32 1.34 7 1 C7 1.99 7 2.98 7 4 C4.69 4 2.38 4 0 4 C0 2.68 0 1.36 0 0 Z " fill="#7F9F7D" transform="translate(98,125)"/>
<path d="M0 0 C2.29633824 3.44450737 2.54016485 5.93812283 3 10 C2.34 10 1.68 10 1 10 C-0.1577506 6.52674819 -0.06866652 3.63932552 0 0 Z " fill="#D73012" transform="translate(78,95)"/>
<path d="M0 0 C0.99 0.33 1.98 0.66 3 1 C1.52307692 5.67692308 1.52307692 5.67692308 -1.125 7.3125 C-2.053125 7.6528125 -2.053125 7.6528125 -3 8 C-2.34 7.01 -1.68 6.02 -1 5 C-0.61500109 3.34450469 -0.27206865 1.6777567 0 0 Z " fill="#547A53" transform="translate(130,19)"/>
</svg>
